<svg xmlns="http://www.w3.org/2000/svg" xmlns:xlink="http://www.w3.org/1999/xlink" width="2560" zoomAndPan="magnify" viewBox="0 0 1920 1079.999946" height="1440" preserveAspectRatio="xMidYMid meet" version="1.0"><defs><filter x="0%" y="0%" width="100%" height="100%" id="4e44cb4610"><feColorMatrix values="0 0 0 0 1 0 0 0 0 1 0 0 0 0 1 0 0 0 1 0" color-interpolation-filters="sRGB"/></filter><mask id="31d17970d7"><g filter="url(#4e44cb4610)"><rect x="-192" width="2304" fill="#000000" y="-107.999995" height="1295.999935" fill-opacity="0.5"/></g></mask><clipPath id="eaffd7a1c1"><path d="M 24 0 L 525 0 L 525 172 L 24 172 Z M 24 0 " clip-rule="nonzero"/></clipPath><clipPath id="31d9803e94"><path d="M 0 0 L 549 0 L 549 195.933594 L 0 195.933594 Z M 0 0 " clip-rule="nonzero"/></clipPath><clipPath id="0f9eed8e40"><rect x="0" width="550" y="0" height="197"/></clipPath><mask id="e56787c0d3"><g filter="url(#4e44cb4610)"><rect x="-192" width="2304" fill="#000000" y="-107.999995" height="1295.999935" fill-opacity="0.5"/></g></mask><clipPath id="a382ded66b"><path d="M 17 16 L 346 16 L 346 134 L 17 134 Z M 17 16 " clip-rule="nonzero"/></clipPath><clipPath id="911a399dae"><path d="M 1.132812 0.34375 L 361.882812 0.34375 L 361.882812 134 L 1.132812 134 Z M 1.132812 0.34375 " clip-rule="nonzero"/></clipPath><clipPath id="f69b9217c9"><rect x="0" width="363" y="0" height="134"/></clipPath><mask id="ad7dd26e86"><g filter="url(#4e44cb4610)"><rect x="-192" width="2304" fill="#000000" y="-107.999995" height="1295.999935" fill-opacity="0.5"/></g></mask><clipPath id="1eb2cc8b15"><path d="M 17 0 L 246 0 L 246 92 L 17 92 Z M 17 0 " clip-rule="nonzero"/></clipPath><clipPath id="754ea88812"><path d="M 0.507812 0 L 246 0 L 246 108 L 0.507812 108 Z M 0.507812 0 " clip-rule="nonzero"/></clipPath><clipPath id="66fd11faf2"><rect x="0" width="246" y="0" height="109"/></clipPath><mask id="1e5122272a"><g filter="url(#4e44cb4610)"><rect x="-192" width="2304" fill="#000000" y="-107.999995" height="1295.999935" fill-opacity="0.5"/></g></mask><clipPath id="7e385fb559"><path d="M 26 0 L 526 0 L 526 199 L 26 199 Z M 26 0 " clip-rule="nonzero"/></clipPath><clipPath id="f234ffa1e9"><path d="M 1.078125 0 L 550.078125 0 L 550.078125 222.941406 L 1.078125 222.941406 Z M 1.078125 0 " clip-rule="nonzero"/></clipPath><clipPath id="40bbbc7179"><rect x="0" width="551" y="0" height="224"/></clipPath><mask id="b18cdc1d8f"><g filter="url(#4e44cb4610)"><rect x="-192" width="2304" fill="#000000" y="-107.999995" height="1295.999935" fill-opacity="0.5"/></g></mask><clipPath id="04ebb7655f"><path d="M 17 0 L 356 0 L 356 55 L 17 55 Z M 17 0 " clip-rule="nonzero"/></clipPath><clipPath id="17d6131a1f"><path d="M 0.261719 0 L 373 0 L 373 71 L 0.261719 71 Z M 0.261719 0 " clip-rule="nonzero"/></clipPath><clipPath id="05e5fc9a34"><rect x="0" width="374" y="0" height="72"/></clipPath><mask id="ffad206fdc"><g filter="url(#4e44cb4610)"><rect x="-192" width="2304" fill="#000000" y="-107.999995" height="1295.999935" fill-opacity="0.5"/></g></mask><clipPath id="83b05acaef"><path d="M 17 16 L 346 16 L 346 92 L 17 92 Z M 17 16 " clip-rule="nonzero"/></clipPath><clipPath id="ea5339a005"><path d="M 1.089844 0.179688 L 361.839844 0.179688 L 361.839844 92 L 1.089844 92 Z M 1.089844 0.179688 " clip-rule="nonzero"/></clipPath><clipPath id="60284c6a42"><rect x="0" width="363" y="0" height="92"/></clipPath><mask id="70622f9b29"><g filter="url(#4e44cb4610)"><rect x="-192" width="2304" fill="#000000" y="-107.999995" height="1295.999935" fill-opacity="0.5"/></g></mask><clipPath id="0cfe5ef2d0"><path d="M 1 0.5625 L 150.839844 0.5625 L 150.839844 174.5625 L 1 174.5625 Z M 1 0.5625 " clip-rule="nonzero"/></clipPath><clipPath id="64dd34f36e"><rect x="0" width="151" y="0" height="175"/></clipPath><mask id="18f1cb4f7e"><g filter="url(#4e44cb4610)"><rect x="-192" width="2304" fill="#000000" y="-107.999995" height="1295.999935" fill-opacity="0.5"/></g></mask><clipPath id="a8efc3ddc6"><path d="M 1.078125 0.441406 L 193.601562 0.441406 L 193.601562 166.148438 L 1.078125 166.148438 Z M 1.078125 0.441406 " clip-rule="nonzero"/></clipPath><clipPath id="d8ee404bea"><rect x="0" width="194" y="0" height="167"/></clipPath><mask id="f0d6fd6aff"><g filter="url(#4e44cb4610)"><rect x="-192" width="2304" fill="#000000" y="-107.999995" height="1295.999935" fill-opacity="0.5"/></g></mask><clipPath id="3cba631aaf"><path d="M 0.242188 0.304688 L 183.917969 0.304688 L 183.917969 107 L 0.242188 107 Z M 0.242188 0.304688 " clip-rule="nonzero"/></clipPath><clipPath id="cd870e671b"><rect x="0" width="184" y="0" height="107"/></clipPath><mask id="5e7b2de63c"><g filter="url(#4e44cb4610)"><rect x="-192" width="2304" fill="#000000" y="-107.999995" height="1295.999935" fill-opacity="0.5"/></g></mask><clipPath id="ce71eb2bbb"><path d="M 0.933594 0.546875 L 122.433594 0.546875 L 122.433594 142.238281 L 0.933594 142.238281 Z M 0.933594 0.546875 " clip-rule="nonzero"/></clipPath><clipPath id="95fedca0de"><rect x="0" width="123" y="0" height="143"/></clipPath><mask id="82042ca6e6"><g filter="url(#4e44cb4610)"><rect x="-192" width="2304" fill="#000000" y="-107.999995" height="1295.999935" fill-opacity="0.5"/></g></mask><clipPath id="0f22a88727"><path d="M 0.964844 0.828125 L 218.464844 0.828125 L 218.464844 218.328125 L 0.964844 218.328125 Z M 0.964844 0.828125 " clip-rule="nonzero"/></clipPath><clipPath id="596c51b99d"><rect x="0" width="219" y="0" height="219"/></clipPath><mask id="0e635cc0cb"><g filter="url(#4e44cb4610)"><rect x="-192" width="2304" fill="#000000" y="-107.999995" height="1295.999935" fill-opacity="0.5"/></g></mask><clipPath id="b031e2ab60"><path d="M 0.753906 0.480469 L 369 0.480469 L 369 368.730469 L 0.753906 368.730469 Z M 0.753906 0.480469 " clip-rule="nonzero"/></clipPath><clipPath id="a631fab144"><rect x="0" width="370" y="0" height="369"/></clipPath></defs><rect x="-192" width="2304" fill="#ffffff" y="-107.999995" height="1295.999935" fill-opacity="1"/><rect x="-192" width="2304" fill="#2b2b2b" y="-107.999995" height="1295.999935" fill-opacity="1"/><g mask="url(#31d17970d7)"><g transform="matrix(1, 0, 0, 1, 0, -0.000000000000003846)"><g clip-path="url(#0f9eed8e40)"><g clip-path="url(#eaffd7a1c1)"><path fill="#f0f0f0" d="M 274.566406 -328.074219 L 524.15625 -78.476562 L 274.558594 171.113281 L 24.964844 -78.484375 Z M 274.566406 -328.074219 " fill-opacity="1" fill-rule="nonzero"/></g><g clip-path="url(#31d9803e94)"><path fill="#f0f0f0" d="M 274.542969 196.015625 L 0 -78.527344 L 274.542969 -353.066406 L 549.082031 -78.527344 Z M 3.496094 -78.527344 L 274.542969 192.515625 L 545.585938 -78.527344 L 274.542969 -349.570312 Z M 3.496094 -78.527344 " fill-opacity="1" fill-rule="nonzero"/></g></g></g></g><g mask="url(#e56787c0d3)"><g transform="matrix(1, 0, 0, 1, 696, 946)"><g clip-path="url(#f69b9217c9)"><g clip-path="url(#a382ded66b)"><path fill="#f0f0f0" d="M 181.394531 16.75 L 345.257812 180.621094 L 181.386719 344.488281 L 17.523438 180.617188 Z M 181.394531 16.75 " fill-opacity="1" fill-rule="nonzero"/></g><g clip-path="url(#911a399dae)"><path fill="#f0f0f0" d="M 181.378906 360.835938 L 1.132812 180.589844 L 181.378906 0.34375 L 361.625 180.589844 Z M 3.429688 180.589844 L 181.378906 358.539062 L 359.328125 180.589844 L 181.378906 2.636719 Z M 3.429688 180.589844 " fill-opacity="1" fill-rule="nonzero"/></g></g></g></g><g mask="url(#ad7dd26e86)"><g transform="matrix(1, 0, 0, 1, 1674, -0.000000000000003846)"><g clip-path="url(#66fd11faf2)"><g clip-path="url(#1eb2cc8b15)"><path fill="#f0f0f0" d="M 186.804688 -247.605469 L 356.160156 -78.25 L 186.800781 91.105469 L 17.449219 -78.253906 Z M 186.804688 -247.605469 " fill-opacity="1" fill-rule="nonzero"/></g><g clip-path="url(#754ea88812)"><path fill="#f0f0f0" d="M 186.789062 107.996094 L 0.507812 -78.28125 L 186.789062 -264.5625 L 373.070312 -78.28125 Z M 2.882812 -78.28125 L 186.789062 105.625 L 370.699219 -78.28125 L 186.789062 -262.191406 Z M 2.882812 -78.28125 " fill-opacity="1" fill-rule="nonzero"/></g></g></g></g><g mask="url(#1e5122272a)"><g transform="matrix(1, 0, 0, 1, 164, -0.000000000000003846)"><g clip-path="url(#40bbbc7179)"><g clip-path="url(#7e385fb559)"><path fill="#100f0e" d="M 275.644531 -301.066406 L 525.234375 -51.464844 L 275.632812 198.125 L 26.042969 -51.476562 Z M 275.644531 -301.066406 " fill-opacity="1" fill-rule="nonzero"/></g><g clip-path="url(#f234ffa1e9)"><path fill="#100f0e" d="M 275.617188 223.023438 L 1.078125 -51.515625 L 275.617188 -326.058594 L 550.160156 -51.515625 Z M 4.574219 -51.515625 L 275.617188 219.527344 L 546.660156 -51.515625 L 275.617188 -322.5625 Z M 4.574219 -51.515625 " fill-opacity="1" fill-rule="nonzero"/></g></g></g></g><g mask="url(#b18cdc1d8f)"><g transform="matrix(1, 0, 0, 1, 1512, -0.000000000000003846)"><g clip-path="url(#05e5fc9a34)"><g clip-path="url(#04ebb7655f)"><path fill="#100f0e" d="M 186.5625 -284.675781 L 355.914062 -115.316406 L 186.554688 54.035156 L 17.203125 -115.324219 Z M 186.5625 -284.675781 " fill-opacity="1" fill-rule="nonzero"/></g><g clip-path="url(#17d6131a1f)"><path fill="#100f0e" d="M 186.542969 70.929688 L 0.261719 -115.351562 L 186.542969 -301.632812 L 372.824219 -115.351562 Z M 2.636719 -115.351562 L 186.542969 68.554688 L 370.453125 -115.351562 L 186.542969 -299.261719 Z M 2.636719 -115.351562 " fill-opacity="1" fill-rule="nonzero"/></g></g></g></g><g mask="url(#ffad206fdc)"><g transform="matrix(1, 0, 0, 1, 548, 988)"><g clip-path="url(#60284c6a42)"><g clip-path="url(#83b05acaef)"><path fill="#100f0e" d="M 181.351562 16.589844 L 345.21875 180.460938 L 181.347656 344.328125 L 17.480469 180.453125 Z M 181.351562 16.589844 " fill-opacity="1" fill-rule="nonzero"/></g><g clip-path="url(#ea5339a005)"><path fill="#100f0e" d="M 181.335938 360.671875 L 1.089844 180.425781 L 181.335938 0.179688 L 361.582031 180.425781 Z M 3.386719 180.425781 L 181.335938 358.378906 L 359.285156 180.425781 L 181.335938 2.476562 Z M 3.386719 180.425781 " fill-opacity="1" fill-rule="nonzero"/></g></g></g></g><g mask="url(#70622f9b29)"><g transform="matrix(1, 0, 0, 1, 1461, 655)"><g clip-path="url(#64dd34f36e)"><g clip-path="url(#0cfe5ef2d0)"><path fill="#f0f0f0" d="M 98.605469 54.125 C 94.894531 54.125 91.933594 57.085938 91.933594 60.796875 C 91.933594 64.511719 94.894531 67.472656 98.605469 67.472656 C 102.320312 67.472656 105.28125 64.511719 105.28125 60.796875 C 105.28125 57.140625 102.261719 54.125 98.605469 54.125 Z M 98.605469 65.730469 C 95.878906 65.730469 93.675781 63.527344 93.675781 60.796875 C 93.675781 58.070312 95.878906 55.867188 98.605469 55.867188 C 101.335938 55.867188 103.539062 58.070312 103.539062 60.796875 C 103.539062 63.527344 101.335938 65.730469 98.605469 65.730469 Z M 53.109375 54.125 C 49.398438 54.125 46.4375 57.085938 46.4375 60.796875 C 46.4375 64.511719 49.398438 67.472656 53.109375 67.472656 C 56.824219 67.472656 59.785156 64.511719 59.785156 60.796875 C 59.785156 57.140625 56.824219 54.125 53.109375 54.125 Z M 53.109375 65.730469 C 50.382812 65.730469 48.179688 63.527344 48.179688 60.796875 C 48.179688 58.070312 50.382812 55.867188 53.109375 55.867188 C 55.839844 55.867188 58.042969 58.070312 58.042969 60.796875 C 58.042969 63.527344 55.839844 65.730469 53.109375 65.730469 Z M 7.671875 54.125 C 3.960938 54.125 1 57.140625 1 60.796875 C 1 64.453125 3.960938 67.472656 7.671875 67.472656 C 11.386719 67.472656 14.347656 64.511719 14.347656 60.796875 C 14.347656 57.140625 11.328125 54.125 7.671875 54.125 Z M 7.671875 65.730469 C 4.945312 65.730469 2.742188 63.527344 2.742188 60.796875 C 2.742188 58.070312 4.945312 55.867188 7.671875 55.867188 C 10.402344 55.867188 12.605469 58.070312 12.605469 60.796875 C 12.605469 63.527344 10.402344 65.730469 7.671875 65.730469 Z M 144.046875 54.125 C 140.332031 54.125 137.371094 57.085938 137.371094 60.796875 C 137.371094 64.511719 140.332031 67.472656 144.046875 67.472656 C 147.757812 67.472656 150.71875 64.511719 150.71875 60.796875 C 150.71875 57.140625 147.699219 54.125 144.046875 54.125 Z M 144.046875 65.730469 C 141.316406 65.730469 139.113281 63.527344 139.113281 60.796875 C 139.113281 58.070312 141.316406 55.867188 144.046875 55.867188 C 146.773438 55.867188 148.976562 58.070312 148.976562 60.796875 C 148.976562 63.527344 146.773438 65.730469 144.046875 65.730469 Z M 98.605469 107.746094 C 94.894531 107.746094 91.933594 110.703125 91.933594 114.417969 C 91.933594 118.132812 94.894531 121.09375 98.605469 121.09375 C 102.320312 121.09375 105.28125 118.132812 105.28125 114.417969 C 105.28125 110.703125 102.261719 107.746094 98.605469 107.746094 Z M 98.605469 119.351562 C 95.878906 119.351562 93.675781 117.144531 93.675781 114.417969 C 93.675781 111.691406 95.878906 109.484375 98.605469 109.484375 C 101.335938 109.484375 103.539062 111.691406 103.539062 114.417969 C 103.539062 117.144531 101.335938 119.351562 98.605469 119.351562 Z M 53.109375 107.746094 C 49.398438 107.746094 46.4375 110.703125 46.4375 114.417969 C 46.4375 118.132812 49.398438 121.09375 53.109375 121.09375 C 56.824219 121.09375 59.785156 118.132812 59.785156 114.417969 C 59.785156 110.703125 56.824219 107.746094 53.109375 107.746094 Z M 53.109375 119.351562 C 50.382812 119.351562 48.179688 117.144531 48.179688 114.417969 C 48.179688 111.691406 50.382812 109.484375 53.109375 109.484375 C 55.839844 109.484375 58.042969 111.691406 58.042969 114.417969 C 58.042969 117.144531 55.839844 119.351562 53.109375 119.351562 Z M 7.671875 107.746094 C 3.960938 107.746094 1 110.703125 1 114.417969 C 1 118.132812 3.960938 121.09375 7.671875 121.09375 C 11.386719 121.09375 14.347656 118.074219 14.347656 114.417969 C 14.347656 110.703125 11.328125 107.746094 7.671875 107.746094 Z M 7.671875 119.351562 C 4.945312 119.351562 2.742188 117.144531 2.742188 114.417969 C 2.742188 111.691406 4.945312 109.484375 7.671875 109.484375 C 10.402344 109.484375 12.605469 111.691406 12.605469 114.417969 C 12.605469 117.144531 10.402344 119.351562 7.671875 119.351562 Z M 144.046875 107.746094 C 140.332031 107.746094 137.371094 110.703125 137.371094 114.417969 C 137.371094 118.132812 140.332031 121.09375 144.046875 121.09375 C 147.757812 121.09375 150.71875 118.132812 150.71875 114.417969 C 150.71875 110.703125 147.699219 107.746094 144.046875 107.746094 Z M 144.046875 119.351562 C 141.316406 119.351562 139.113281 117.144531 139.113281 114.417969 C 139.113281 111.691406 141.316406 109.484375 144.046875 109.484375 C 146.773438 109.484375 148.976562 111.691406 148.976562 114.417969 C 148.976562 117.144531 146.773438 119.351562 144.046875 119.351562 Z M 98.605469 0.5625 C 94.894531 0.5625 91.933594 3.523438 91.933594 7.234375 C 91.933594 10.949219 94.894531 13.910156 98.605469 13.910156 C 102.320312 13.910156 105.28125 10.949219 105.28125 7.234375 C 105.28125 3.582031 102.261719 0.5625 98.605469 0.5625 Z M 98.605469 12.167969 C 95.878906 12.167969 93.675781 9.964844 93.675781 7.234375 C 93.675781 4.507812 95.878906 2.304688 98.605469 2.304688 C 101.335938 2.304688 103.539062 4.507812 103.539062 7.234375 C 103.539062 9.964844 101.335938 12.167969 98.605469 12.167969 Z M 53.109375 0.5625 C 49.398438 0.5625 46.4375 3.523438 46.4375 7.234375 C 46.4375 10.949219 49.457031 13.910156 53.109375 13.910156 C 56.765625 13.910156 59.785156 10.949219 59.785156 7.234375 C 59.785156 3.582031 56.824219 0.5625 53.109375 0.5625 Z M 53.109375 12.167969 C 50.382812 12.167969 48.179688 9.964844 48.179688 7.234375 C 48.179688 4.507812 50.382812 2.304688 53.109375 2.304688 C 55.839844 2.304688 58.042969 4.507812 58.042969 7.234375 C 58.042969 9.964844 55.839844 12.167969 53.109375 12.167969 Z M 7.671875 0.5625 C 3.960938 0.5625 1 3.523438 1 7.234375 C 1 10.949219 3.960938 13.910156 7.671875 13.910156 C 11.386719 13.910156 14.347656 10.949219 14.347656 7.234375 C 14.347656 3.582031 11.328125 0.5625 7.671875 0.5625 Z M 7.671875 12.167969 C 4.945312 12.167969 2.742188 9.964844 2.742188 7.234375 C 2.742188 4.507812 4.945312 2.304688 7.671875 2.304688 C 10.402344 2.304688 12.605469 4.507812 12.605469 7.234375 C 12.605469 9.964844 10.402344 12.167969 7.671875 12.167969 Z M 144.046875 13.910156 C 147.757812 13.910156 150.71875 10.949219 150.71875 7.234375 C 150.71875 3.523438 147.757812 0.5625 144.046875 0.5625 C 140.332031 0.5625 137.371094 3.523438 137.371094 7.234375 C 137.371094 10.890625 140.390625 13.910156 144.046875 13.910156 Z M 144.046875 2.304688 C 146.773438 2.304688 148.976562 4.507812 148.976562 7.234375 C 148.976562 9.964844 146.773438 12.167969 144.046875 12.167969 C 141.316406 12.167969 139.113281 9.964844 139.113281 7.234375 C 139.113281 4.507812 141.316406 2.304688 144.046875 2.304688 Z M 98.605469 161.308594 C 94.894531 161.308594 91.933594 164.265625 91.933594 167.980469 C 91.933594 171.695312 94.894531 174.652344 98.605469 174.652344 C 102.320312 174.652344 105.28125 171.695312 105.28125 167.980469 C 105.28125 164.324219 102.261719 161.308594 98.605469 161.308594 Z M 98.605469 172.914062 C 95.878906 172.914062 93.675781 170.707031 93.675781 167.980469 C 93.675781 165.253906 95.878906 163.046875 98.605469 163.046875 C 101.335938 163.046875 103.539062 165.253906 103.539062 167.980469 C 103.539062 170.707031 101.335938 172.914062 98.605469 172.914062 Z M 53.109375 161.308594 C 49.398438 161.308594 46.4375 164.265625 46.4375 167.980469 C 46.4375 171.695312 49.457031 174.652344 53.109375 174.652344 C 56.765625 174.652344 59.785156 171.695312 59.785156 167.980469 C 59.785156 164.324219 56.824219 161.308594 53.109375 161.308594 Z M 53.109375 172.914062 C 50.382812 172.914062 48.179688 170.707031 48.179688 167.980469 C 48.179688 165.253906 50.382812 163.046875 53.109375 163.046875 C 55.839844 163.046875 58.042969 165.253906 58.042969 167.980469 C 58.042969 170.707031 55.839844 172.914062 53.109375 172.914062 Z M 7.671875 161.308594 C 3.960938 161.308594 1 164.265625 1 167.980469 C 1 171.695312 3.960938 174.652344 7.671875 174.652344 C 11.386719 174.652344 14.347656 171.695312 14.347656 167.980469 C 14.347656 164.324219 11.328125 161.308594 7.671875 161.308594 Z M 7.671875 172.914062 C 4.945312 172.914062 2.742188 170.707031 2.742188 167.980469 C 2.742188 165.253906 4.945312 163.046875 7.671875 163.046875 C 10.402344 163.046875 12.605469 165.253906 12.605469 167.980469 C 12.605469 170.707031 10.402344 172.914062 7.671875 172.914062 Z M 144.046875 161.308594 C 140.332031 161.308594 137.371094 164.265625 137.371094 167.980469 C 137.371094 171.695312 140.332031 174.652344 144.046875 174.652344 C 147.757812 174.652344 150.71875 171.695312 150.71875 167.980469 C 150.71875 164.324219 147.699219 161.308594 144.046875 161.308594 Z M 144.046875 172.914062 C 141.316406 172.914062 139.113281 170.707031 139.113281 167.980469 C 139.113281 165.253906 141.316406 163.046875 144.046875 163.046875 C 146.773438 163.046875 148.976562 165.253906 148.976562 167.980469 C 148.976562 170.707031 146.773438 172.914062 144.046875 172.914062 Z M 144.046875 172.914062 " fill-opacity="1" fill-rule="nonzero"/></g></g></g></g><g mask="url(#18f1cb4f7e)"><g transform="matrix(1, 0, 0, 1, 164, 829)"><g clip-path="url(#d8ee404bea)"><g clip-path="url(#a8efc3ddc6)"><path fill="#f0f0f0" d="M 60.28125 58.257812 C 60.28125 62.363281 63.554688 65.636719 67.660156 65.636719 C 71.765625 65.636719 75.035156 62.363281 75.035156 58.257812 C 75.035156 54.152344 71.765625 50.882812 67.660156 50.882812 C 63.617188 50.882812 60.28125 54.21875 60.28125 58.257812 Z M 73.113281 58.257812 C 73.113281 61.273438 70.675781 63.710938 67.660156 63.710938 C 64.644531 63.710938 62.207031 61.273438 62.207031 58.257812 C 62.207031 55.246094 64.644531 52.808594 67.660156 52.808594 C 70.675781 52.808594 73.113281 55.246094 73.113281 58.257812 Z M 60.28125 108.546875 C 60.28125 112.652344 63.554688 115.925781 67.660156 115.925781 C 71.765625 115.925781 75.035156 112.652344 75.035156 108.546875 C 75.035156 104.441406 71.765625 101.171875 67.660156 101.171875 C 63.617188 101.171875 60.28125 104.441406 60.28125 108.546875 Z M 73.113281 108.546875 C 73.113281 111.5625 70.675781 114 67.660156 114 C 64.644531 114 62.207031 111.5625 62.207031 108.546875 C 62.207031 105.535156 64.644531 103.097656 67.660156 103.097656 C 70.675781 103.097656 73.113281 105.535156 73.113281 108.546875 Z M 60.28125 158.773438 C 60.28125 162.878906 63.617188 166.148438 67.660156 166.148438 C 71.699219 166.148438 75.035156 162.878906 75.035156 158.773438 C 75.035156 154.667969 71.765625 151.394531 67.660156 151.394531 C 63.617188 151.394531 60.28125 154.730469 60.28125 158.773438 Z M 73.113281 158.773438 C 73.113281 161.789062 70.675781 164.226562 67.660156 164.226562 C 64.644531 164.226562 62.207031 161.789062 62.207031 158.773438 C 62.207031 155.757812 64.644531 153.320312 67.660156 153.320312 C 70.675781 153.320312 73.113281 155.757812 73.113281 158.773438 Z M 60.28125 8.035156 C 60.28125 12.140625 63.554688 15.410156 67.660156 15.410156 C 71.765625 15.410156 75.035156 12.140625 75.035156 8.035156 C 75.035156 3.929688 71.765625 0.65625 67.660156 0.65625 C 63.617188 0.65625 60.28125 3.992188 60.28125 8.035156 Z M 73.113281 8.035156 C 73.113281 11.046875 70.675781 13.484375 67.660156 13.484375 C 64.644531 13.484375 62.207031 11.046875 62.207031 8.035156 C 62.207031 5.019531 64.644531 2.582031 67.660156 2.582031 C 70.675781 2.582031 73.113281 5.019531 73.113281 8.035156 Z M 119.550781 58.257812 C 119.550781 62.363281 122.824219 65.636719 126.929688 65.636719 C 131.035156 65.636719 134.304688 62.363281 134.304688 58.257812 C 134.304688 54.152344 131.035156 50.882812 126.929688 50.882812 C 122.824219 50.882812 119.550781 54.21875 119.550781 58.257812 Z M 132.382812 58.257812 C 132.382812 61.273438 129.945312 63.710938 126.929688 63.710938 C 123.914062 63.710938 121.476562 61.273438 121.476562 58.257812 C 121.476562 55.246094 123.914062 52.808594 126.929688 52.808594 C 129.945312 52.808594 132.382812 55.246094 132.382812 58.257812 Z M 119.550781 108.546875 C 119.550781 112.652344 122.824219 115.925781 126.929688 115.925781 C 131.035156 115.925781 134.304688 112.652344 134.304688 108.546875 C 134.304688 104.441406 131.035156 101.171875 126.929688 101.171875 C 122.824219 101.171875 119.550781 104.441406 119.550781 108.546875 Z M 132.382812 108.546875 C 132.382812 111.5625 129.945312 114 126.929688 114 C 123.914062 114 121.476562 111.5625 121.476562 108.546875 C 121.476562 105.535156 123.914062 103.097656 126.929688 103.097656 C 129.945312 103.097656 132.382812 105.535156 132.382812 108.546875 Z M 119.550781 158.773438 C 119.550781 162.878906 122.824219 166.148438 126.929688 166.148438 C 131.035156 166.148438 134.304688 162.878906 134.304688 158.773438 C 134.304688 154.667969 130.96875 151.394531 126.929688 151.394531 C 122.824219 151.394531 119.550781 154.730469 119.550781 158.773438 Z M 132.382812 158.773438 C 132.382812 161.789062 129.945312 164.226562 126.929688 164.226562 C 123.914062 164.226562 121.476562 161.789062 121.476562 158.773438 C 121.476562 155.757812 123.914062 153.320312 126.929688 153.320312 C 129.945312 153.320312 132.382812 155.757812 132.382812 158.773438 Z M 119.550781 8.035156 C 119.550781 12.140625 122.824219 15.410156 126.929688 15.410156 C 131.035156 15.410156 134.304688 12.140625 134.304688 8.035156 C 134.304688 3.929688 131.035156 0.65625 126.929688 0.65625 C 122.824219 0.65625 119.550781 3.992188 119.550781 8.035156 Z M 132.382812 8.035156 C 132.382812 11.046875 129.945312 13.484375 126.929688 13.484375 C 123.914062 13.484375 121.476562 11.046875 121.476562 8.035156 C 121.476562 5.019531 123.914062 2.582031 126.929688 2.582031 C 129.945312 2.582031 132.382812 5.019531 132.382812 8.035156 Z M 1.078125 58.257812 C 1.078125 62.363281 4.347656 65.636719 8.453125 65.636719 C 12.558594 65.636719 15.832031 62.363281 15.832031 58.257812 C 15.832031 54.152344 12.558594 50.882812 8.453125 50.882812 C 4.414062 50.882812 1.078125 54.21875 1.078125 58.257812 Z M 13.90625 58.257812 C 13.90625 61.273438 11.46875 63.710938 8.453125 63.710938 C 5.441406 63.710938 3.003906 61.273438 3.003906 58.257812 C 3.003906 55.246094 5.441406 52.808594 8.453125 52.808594 C 11.46875 52.808594 13.90625 55.246094 13.90625 58.257812 Z M 1.078125 108.546875 C 1.078125 112.652344 4.347656 115.925781 8.453125 115.925781 C 12.558594 115.925781 15.832031 112.589844 15.832031 108.546875 C 15.832031 104.507812 12.558594 101.171875 8.453125 101.171875 C 4.414062 101.171875 1.078125 104.441406 1.078125 108.546875 Z M 13.90625 108.546875 C 13.90625 111.5625 11.46875 114 8.453125 114 C 5.441406 114 3.003906 111.5625 3.003906 108.546875 C 3.003906 105.535156 5.441406 103.097656 8.453125 103.097656 C 11.46875 103.097656 13.90625 105.535156 13.90625 108.546875 Z M 1.078125 158.773438 C 1.078125 162.878906 4.347656 166.148438 8.453125 166.148438 C 12.558594 166.148438 15.832031 162.878906 15.832031 158.773438 C 15.832031 154.667969 12.558594 151.394531 8.453125 151.394531 C 4.414062 151.394531 1.078125 154.730469 1.078125 158.773438 Z M 13.90625 158.773438 C 13.90625 161.789062 11.46875 164.226562 8.453125 164.226562 C 5.441406 164.226562 3.003906 161.789062 3.003906 158.773438 C 3.003906 155.757812 5.441406 153.320312 8.453125 153.320312 C 11.46875 153.320312 13.90625 155.757812 13.90625 158.773438 Z M 15.832031 8.035156 C 15.832031 3.929688 12.558594 0.65625 8.453125 0.65625 C 4.347656 0.65625 1.078125 3.929688 1.078125 8.035156 C 1.078125 12.140625 4.347656 15.410156 8.453125 15.410156 C 12.496094 15.410156 15.832031 12.074219 15.832031 8.035156 Z M 3.003906 8.035156 C 3.003906 5.019531 5.441406 2.582031 8.453125 2.582031 C 11.46875 2.582031 13.90625 5.019531 13.90625 8.035156 C 13.90625 11.046875 11.46875 13.484375 8.453125 13.484375 C 5.441406 13.484375 3.003906 11.046875 3.003906 8.035156 Z M 178.757812 58.257812 C 178.757812 62.363281 182.027344 65.636719 186.132812 65.636719 C 190.238281 65.636719 193.511719 62.363281 193.511719 58.257812 C 193.511719 54.152344 190.238281 50.882812 186.132812 50.882812 C 182.09375 50.882812 178.757812 54.21875 178.757812 58.257812 Z M 191.585938 58.257812 C 191.585938 61.273438 189.148438 63.710938 186.132812 63.710938 C 183.117188 63.710938 180.679688 61.273438 180.679688 58.257812 C 180.679688 55.246094 183.117188 52.808594 186.132812 52.808594 C 189.148438 52.808594 191.585938 55.246094 191.585938 58.257812 Z M 178.757812 108.546875 C 178.757812 112.652344 182.027344 115.925781 186.132812 115.925781 C 190.238281 115.925781 193.511719 112.589844 193.511719 108.546875 C 193.511719 104.507812 190.238281 101.171875 186.132812 101.171875 C 182.09375 101.171875 178.757812 104.441406 178.757812 108.546875 Z M 191.585938 108.546875 C 191.585938 111.5625 189.148438 114 186.132812 114 C 183.117188 114 180.679688 111.5625 180.679688 108.546875 C 180.679688 105.535156 183.117188 103.097656 186.132812 103.097656 C 189.148438 103.097656 191.585938 105.535156 191.585938 108.546875 Z M 178.757812 158.773438 C 178.757812 162.878906 182.027344 166.148438 186.132812 166.148438 C 190.238281 166.148438 193.511719 162.878906 193.511719 158.773438 C 193.511719 154.667969 190.238281 151.394531 186.132812 151.394531 C 182.09375 151.394531 178.757812 154.730469 178.757812 158.773438 Z M 191.585938 158.773438 C 191.585938 161.789062 189.148438 164.226562 186.132812 164.226562 C 183.117188 164.226562 180.679688 161.789062 180.679688 158.773438 C 180.679688 155.757812 183.117188 153.320312 186.132812 153.320312 C 189.148438 153.320312 191.585938 155.757812 191.585938 158.773438 Z M 178.757812 8.035156 C 178.757812 12.140625 182.027344 15.410156 186.132812 15.410156 C 190.238281 15.410156 193.511719 12.140625 193.511719 8.035156 C 193.511719 3.929688 190.238281 0.65625 186.132812 0.65625 C 182.09375 0.65625 178.757812 3.992188 178.757812 8.035156 Z M 191.585938 8.035156 C 191.585938 11.046875 189.148438 13.484375 186.132812 13.484375 C 183.117188 13.484375 180.679688 11.046875 180.679688 8.035156 C 180.679688 5.019531 183.117188 2.582031 186.132812 2.582031 C 189.148438 2.582031 191.585938 5.019531 191.585938 8.035156 Z M 191.585938 8.035156 " fill-opacity="1" fill-rule="nonzero"/></g></g></g></g><g mask="url(#f0d6fd6aff)"><g transform="matrix(1, 0, 0, 1, 1720, 973)"><g clip-path="url(#cd870e671b)"><g clip-path="url(#3cba631aaf)"><path fill="#f0f0f0" d="M 119.882812 65.957031 C 115.328125 65.957031 111.703125 69.582031 111.703125 74.136719 C 111.703125 78.6875 115.328125 82.316406 119.882812 82.316406 C 124.433594 82.316406 128.0625 78.6875 128.0625 74.136719 C 128.0625 69.65625 124.363281 65.957031 119.882812 65.957031 Z M 119.882812 80.183594 C 116.539062 80.183594 113.835938 77.480469 113.835938 74.136719 C 113.835938 70.792969 116.539062 68.089844 119.882812 68.089844 C 123.226562 68.089844 125.929688 70.792969 125.929688 74.136719 C 125.929688 77.480469 123.226562 80.183594 119.882812 80.183594 Z M 64.117188 65.957031 C 59.566406 65.957031 55.9375 69.582031 55.9375 74.136719 C 55.9375 78.6875 59.566406 82.316406 64.117188 82.316406 C 68.667969 82.316406 72.296875 78.6875 72.296875 74.136719 C 72.296875 69.65625 68.667969 65.957031 64.117188 65.957031 Z M 64.117188 80.183594 C 60.773438 80.183594 58.070312 77.480469 58.070312 74.136719 C 58.070312 70.792969 60.773438 68.089844 64.117188 68.089844 C 67.460938 68.089844 70.164062 70.792969 70.164062 74.136719 C 70.164062 77.480469 67.460938 80.183594 64.117188 80.183594 Z M 8.421875 65.957031 C 3.871094 65.957031 0.242188 69.65625 0.242188 74.136719 C 0.242188 78.617188 3.871094 82.316406 8.421875 82.316406 C 12.976562 82.316406 16.601562 78.6875 16.601562 74.136719 C 16.601562 69.65625 12.902344 65.957031 8.421875 65.957031 Z M 8.421875 80.183594 C 5.078125 80.183594 2.375 77.480469 2.375 74.136719 C 2.375 70.792969 5.078125 68.089844 8.421875 68.089844 C 11.765625 68.089844 14.46875 70.792969 14.46875 74.136719 C 14.46875 77.480469 11.765625 80.183594 8.421875 80.183594 Z M 175.574219 65.957031 C 171.023438 65.957031 167.394531 69.582031 167.394531 74.136719 C 167.394531 78.6875 171.023438 82.316406 175.574219 82.316406 C 180.128906 82.316406 183.753906 78.6875 183.753906 74.136719 C 183.753906 69.65625 180.058594 65.957031 175.574219 65.957031 Z M 175.574219 80.183594 C 172.234375 80.183594 169.53125 77.480469 169.53125 74.136719 C 169.53125 70.792969 172.234375 68.089844 175.574219 68.089844 C 178.917969 68.089844 181.621094 70.792969 181.621094 74.136719 C 181.621094 77.480469 178.917969 80.183594 175.574219 80.183594 Z M 119.882812 131.679688 C 115.328125 131.679688 111.703125 135.308594 111.703125 139.859375 C 111.703125 144.410156 115.328125 148.039062 119.882812 148.039062 C 124.433594 148.039062 128.0625 144.410156 128.0625 139.859375 C 128.0625 135.308594 124.363281 131.679688 119.882812 131.679688 Z M 119.882812 145.90625 C 116.539062 145.90625 113.835938 143.203125 113.835938 139.859375 C 113.835938 136.515625 116.539062 133.8125 119.882812 133.8125 C 123.226562 133.8125 125.929688 136.515625 125.929688 139.859375 C 125.929688 143.203125 123.226562 145.90625 119.882812 145.90625 Z M 64.117188 131.679688 C 59.566406 131.679688 55.9375 135.308594 55.9375 139.859375 C 55.9375 144.410156 59.566406 148.039062 64.117188 148.039062 C 68.667969 148.039062 72.296875 144.410156 72.296875 139.859375 C 72.296875 135.308594 68.667969 131.679688 64.117188 131.679688 Z M 64.117188 145.90625 C 60.773438 145.90625 58.070312 143.203125 58.070312 139.859375 C 58.070312 136.515625 60.773438 133.8125 64.117188 133.8125 C 67.460938 133.8125 70.164062 136.515625 70.164062 139.859375 C 70.164062 143.203125 67.460938 145.90625 64.117188 145.90625 Z M 8.421875 131.679688 C 3.871094 131.679688 0.242188 135.308594 0.242188 139.859375 C 0.242188 144.410156 3.871094 148.039062 8.421875 148.039062 C 12.976562 148.039062 16.601562 144.339844 16.601562 139.859375 C 16.601562 135.308594 12.902344 131.679688 8.421875 131.679688 Z M 8.421875 145.90625 C 5.078125 145.90625 2.375 143.203125 2.375 139.859375 C 2.375 136.515625 5.078125 133.8125 8.421875 133.8125 C 11.765625 133.8125 14.46875 136.515625 14.46875 139.859375 C 14.46875 143.203125 11.765625 145.90625 8.421875 145.90625 Z M 175.574219 131.679688 C 171.023438 131.679688 167.394531 135.308594 167.394531 139.859375 C 167.394531 144.410156 171.023438 148.039062 175.574219 148.039062 C 180.128906 148.039062 183.753906 144.410156 183.753906 139.859375 C 183.753906 135.308594 180.058594 131.679688 175.574219 131.679688 Z M 175.574219 145.90625 C 172.234375 145.90625 169.53125 143.203125 169.53125 139.859375 C 169.53125 136.515625 172.234375 133.8125 175.574219 133.8125 C 178.917969 133.8125 181.621094 136.515625 181.621094 139.859375 C 181.621094 143.203125 178.917969 145.90625 175.574219 145.90625 Z M 119.882812 0.304688 C 115.328125 0.304688 111.703125 3.933594 111.703125 8.484375 C 111.703125 13.035156 115.328125 16.664062 119.882812 16.664062 C 124.433594 16.664062 128.0625 13.035156 128.0625 8.484375 C 128.0625 4.003906 124.363281 0.304688 119.882812 0.304688 Z M 119.882812 14.53125 C 116.539062 14.53125 113.835938 11.828125 113.835938 8.484375 C 113.835938 5.140625 116.539062 2.4375 119.882812 2.4375 C 123.226562 2.4375 125.929688 5.140625 125.929688 8.484375 C 125.929688 11.828125 123.226562 14.53125 119.882812 14.53125 Z M 64.117188 0.304688 C 59.566406 0.304688 55.9375 3.933594 55.9375 8.484375 C 55.9375 13.035156 59.636719 16.664062 64.117188 16.664062 C 68.597656 16.664062 72.296875 13.035156 72.296875 8.484375 C 72.296875 4.003906 68.667969 0.304688 64.117188 0.304688 Z M 64.117188 14.53125 C 60.773438 14.53125 58.070312 11.828125 58.070312 8.484375 C 58.070312 5.140625 60.773438 2.4375 64.117188 2.4375 C 67.460938 2.4375 70.164062 5.140625 70.164062 8.484375 C 70.164062 11.828125 67.460938 14.53125 64.117188 14.53125 Z M 8.421875 0.304688 C 3.871094 0.304688 0.242188 3.933594 0.242188 8.484375 C 0.242188 13.035156 3.871094 16.664062 8.421875 16.664062 C 12.976562 16.664062 16.601562 13.035156 16.601562 8.484375 C 16.601562 4.003906 12.902344 0.304688 8.421875 0.304688 Z M 8.421875 14.53125 C 5.078125 14.53125 2.375 11.828125 2.375 8.484375 C 2.375 5.140625 5.078125 2.4375 8.421875 2.4375 C 11.765625 2.4375 14.46875 5.140625 14.46875 8.484375 C 14.46875 11.828125 11.765625 14.53125 8.421875 14.53125 Z M 175.574219 16.664062 C 180.128906 16.664062 183.753906 13.035156 183.753906 8.484375 C 183.753906 3.933594 180.128906 0.304688 175.574219 0.304688 C 171.023438 0.304688 167.394531 3.933594 167.394531 8.484375 C 167.394531 12.964844 171.09375 16.664062 175.574219 16.664062 Z M 175.574219 2.4375 C 178.917969 2.4375 181.621094 5.140625 181.621094 8.484375 C 181.621094 11.828125 178.917969 14.53125 175.574219 14.53125 C 172.234375 14.53125 169.53125 11.828125 169.53125 8.484375 C 169.53125 5.140625 172.234375 2.4375 175.574219 2.4375 Z M 119.882812 197.332031 C 115.328125 197.332031 111.703125 200.957031 111.703125 205.511719 C 111.703125 210.0625 115.328125 213.691406 119.882812 213.691406 C 124.433594 213.691406 128.0625 210.0625 128.0625 205.511719 C 128.0625 201.03125 124.363281 197.332031 119.882812 197.332031 Z M 119.882812 211.558594 C 116.539062 211.558594 113.835938 208.855469 113.835938 205.511719 C 113.835938 202.167969 116.539062 199.464844 119.882812 199.464844 C 123.226562 199.464844 125.929688 202.167969 125.929688 205.511719 C 125.929688 208.855469 123.226562 211.558594 119.882812 211.558594 Z M 64.117188 197.332031 C 59.566406 197.332031 55.9375 200.957031 55.9375 205.511719 C 55.9375 210.0625 59.636719 213.691406 64.117188 213.691406 C 68.597656 213.691406 72.296875 210.0625 72.296875 205.511719 C 72.296875 201.03125 68.667969 197.332031 64.117188 197.332031 Z M 64.117188 211.558594 C 60.773438 211.558594 58.070312 208.855469 58.070312 205.511719 C 58.070312 202.167969 60.773438 199.464844 64.117188 199.464844 C 67.460938 199.464844 70.164062 202.167969 70.164062 205.511719 C 70.164062 208.855469 67.460938 211.558594 64.117188 211.558594 Z M 8.421875 197.332031 C 3.871094 197.332031 0.242188 200.957031 0.242188 205.511719 C 0.242188 210.0625 3.871094 213.691406 8.421875 213.691406 C 12.976562 213.691406 16.601562 210.0625 16.601562 205.511719 C 16.601562 201.03125 12.902344 197.332031 8.421875 197.332031 Z M 8.421875 211.558594 C 5.078125 211.558594 2.375 208.855469 2.375 205.511719 C 2.375 202.167969 5.078125 199.464844 8.421875 199.464844 C 11.765625 199.464844 14.46875 202.167969 14.46875 205.511719 C 14.46875 208.855469 11.765625 211.558594 8.421875 211.558594 Z M 175.574219 197.332031 C 171.023438 197.332031 167.394531 200.957031 167.394531 205.511719 C 167.394531 210.0625 171.023438 213.691406 175.574219 213.691406 C 180.128906 213.691406 183.753906 210.0625 183.753906 205.511719 C 183.753906 201.03125 180.058594 197.332031 175.574219 197.332031 Z M 175.574219 211.558594 C 172.234375 211.558594 169.53125 208.855469 169.53125 205.511719 C 169.53125 202.167969 172.234375 199.464844 175.574219 199.464844 C 178.917969 199.464844 181.621094 202.167969 181.621094 205.511719 C 181.621094 208.855469 178.917969 211.558594 175.574219 211.558594 Z M 175.574219 211.558594 " fill-opacity="1" fill-rule="nonzero"/></g></g></g></g><g mask="url(#5e7b2de63c)"><g transform="matrix(1, 0, 0, 1, 322, 314)"><g clip-path="url(#95fedca0de)"><g clip-path="url(#ce71eb2bbb)"><path fill="#f0f0f0" d="M 80.25 44.074219 C 77.234375 44.074219 74.828125 46.476562 74.828125 49.496094 C 74.828125 52.511719 77.234375 54.917969 80.25 54.917969 C 83.269531 54.917969 85.675781 52.511719 85.675781 49.496094 C 85.675781 46.523438 83.222656 44.074219 80.25 44.074219 Z M 80.25 53.503906 C 78.035156 53.503906 76.242188 51.710938 76.242188 49.496094 C 76.242188 47.277344 78.035156 45.488281 80.25 45.488281 C 82.46875 45.488281 84.257812 47.277344 84.257812 49.496094 C 84.257812 51.710938 82.46875 53.503906 80.25 53.503906 Z M 43.28125 44.074219 C 40.261719 44.074219 37.859375 46.476562 37.859375 49.496094 C 37.859375 52.511719 40.261719 54.917969 43.28125 54.917969 C 46.296875 54.917969 48.703125 52.511719 48.703125 49.496094 C 48.703125 46.523438 46.296875 44.074219 43.28125 44.074219 Z M 43.28125 53.503906 C 41.0625 53.503906 39.273438 51.710938 39.273438 49.496094 C 39.273438 47.277344 41.0625 45.488281 43.28125 45.488281 C 45.496094 45.488281 47.289062 47.277344 47.289062 49.496094 C 47.289062 51.710938 45.496094 53.503906 43.28125 53.503906 Z M 6.355469 44.074219 C 3.339844 44.074219 0.933594 46.523438 0.933594 49.496094 C 0.933594 52.464844 3.339844 54.917969 6.355469 54.917969 C 9.375 54.917969 11.78125 52.511719 11.78125 49.496094 C 11.78125 46.523438 9.328125 44.074219 6.355469 44.074219 Z M 6.355469 53.503906 C 4.140625 53.503906 2.347656 51.710938 2.347656 49.496094 C 2.347656 47.277344 4.140625 45.488281 6.355469 45.488281 C 8.574219 45.488281 10.367188 47.277344 10.367188 49.496094 C 10.367188 51.710938 8.574219 53.503906 6.355469 53.503906 Z M 117.175781 44.074219 C 114.15625 44.074219 111.75 46.476562 111.75 49.496094 C 111.75 52.511719 114.15625 54.917969 117.175781 54.917969 C 120.191406 54.917969 122.597656 52.511719 122.597656 49.496094 C 122.597656 46.523438 120.144531 44.074219 117.175781 44.074219 Z M 117.175781 53.503906 C 114.957031 53.503906 113.167969 51.710938 113.167969 49.496094 C 113.167969 47.277344 114.957031 45.488281 117.175781 45.488281 C 119.390625 45.488281 121.183594 47.277344 121.183594 49.496094 C 121.183594 51.710938 119.390625 53.503906 117.175781 53.503906 Z M 80.25 87.644531 C 77.234375 87.644531 74.828125 90.050781 74.828125 93.066406 C 74.828125 96.085938 77.234375 98.492188 80.25 98.492188 C 83.269531 98.492188 85.675781 96.085938 85.675781 93.066406 C 85.675781 90.050781 83.222656 87.644531 80.25 87.644531 Z M 80.25 97.074219 C 78.035156 97.074219 76.242188 95.285156 76.242188 93.066406 C 76.242188 90.851562 78.035156 89.058594 80.25 89.058594 C 82.46875 89.058594 84.257812 90.851562 84.257812 93.066406 C 84.257812 95.285156 82.46875 97.074219 80.25 97.074219 Z M 43.28125 87.644531 C 40.261719 87.644531 37.859375 90.050781 37.859375 93.066406 C 37.859375 96.085938 40.261719 98.492188 43.28125 98.492188 C 46.296875 98.492188 48.703125 96.085938 48.703125 93.066406 C 48.703125 90.050781 46.296875 87.644531 43.28125 87.644531 Z M 43.28125 97.074219 C 41.0625 97.074219 39.273438 95.285156 39.273438 93.066406 C 39.273438 90.851562 41.0625 89.058594 43.28125 89.058594 C 45.496094 89.058594 47.289062 90.851562 47.289062 93.066406 C 47.289062 95.285156 45.496094 97.074219 43.28125 97.074219 Z M 6.355469 87.644531 C 3.339844 87.644531 0.933594 90.050781 0.933594 93.066406 C 0.933594 96.085938 3.339844 98.492188 6.355469 98.492188 C 9.375 98.492188 11.78125 96.039062 11.78125 93.066406 C 11.78125 90.050781 9.328125 87.644531 6.355469 87.644531 Z M 6.355469 97.074219 C 4.140625 97.074219 2.347656 95.285156 2.347656 93.066406 C 2.347656 90.851562 4.140625 89.058594 6.355469 89.058594 C 8.574219 89.058594 10.367188 90.851562 10.367188 93.066406 C 10.367188 95.285156 8.574219 97.074219 6.355469 97.074219 Z M 117.175781 87.644531 C 114.15625 87.644531 111.75 90.050781 111.75 93.066406 C 111.75 96.085938 114.15625 98.492188 117.175781 98.492188 C 120.191406 98.492188 122.597656 96.085938 122.597656 93.066406 C 122.597656 90.050781 120.144531 87.644531 117.175781 87.644531 Z M 117.175781 97.074219 C 114.957031 97.074219 113.167969 95.285156 113.167969 93.066406 C 113.167969 90.851562 114.957031 89.058594 117.175781 89.058594 C 119.390625 89.058594 121.183594 90.851562 121.183594 93.066406 C 121.183594 95.285156 119.390625 97.074219 117.175781 97.074219 Z M 80.25 0.546875 C 77.234375 0.546875 74.828125 2.953125 74.828125 5.96875 C 74.828125 8.988281 77.234375 11.394531 80.25 11.394531 C 83.269531 11.394531 85.675781 8.988281 85.675781 5.96875 C 85.675781 3 83.222656 0.546875 80.25 0.546875 Z M 80.25 9.976562 C 78.035156 9.976562 76.242188 8.1875 76.242188 5.96875 C 76.242188 3.753906 78.035156 1.960938 80.25 1.960938 C 82.46875 1.960938 84.257812 3.753906 84.257812 5.96875 C 84.257812 8.1875 82.46875 9.976562 80.25 9.976562 Z M 43.28125 0.546875 C 40.261719 0.546875 37.859375 2.953125 37.859375 5.96875 C 37.859375 8.988281 40.308594 11.394531 43.28125 11.394531 C 46.25 11.394531 48.703125 8.988281 48.703125 5.96875 C 48.703125 3 46.296875 0.546875 43.28125 0.546875 Z M 43.28125 9.976562 C 41.0625 9.976562 39.273438 8.1875 39.273438 5.96875 C 39.273438 3.753906 41.0625 1.960938 43.28125 1.960938 C 45.496094 1.960938 47.289062 3.753906 47.289062 5.96875 C 47.289062 8.1875 45.496094 9.976562 43.28125 9.976562 Z M 6.355469 0.546875 C 3.339844 0.546875 0.933594 2.953125 0.933594 5.96875 C 0.933594 8.988281 3.339844 11.394531 6.355469 11.394531 C 9.375 11.394531 11.78125 8.988281 11.78125 5.96875 C 11.78125 3 9.328125 0.546875 6.355469 0.546875 Z M 6.355469 9.976562 C 4.140625 9.976562 2.347656 8.1875 2.347656 5.96875 C 2.347656 3.753906 4.140625 1.960938 6.355469 1.960938 C 8.574219 1.960938 10.367188 3.753906 10.367188 5.96875 C 10.367188 8.1875 8.574219 9.976562 6.355469 9.976562 Z M 117.175781 11.394531 C 120.191406 11.394531 122.597656 8.988281 122.597656 5.96875 C 122.597656 2.953125 120.191406 0.546875 117.175781 0.546875 C 114.15625 0.546875 111.75 2.953125 111.75 5.96875 C 111.75 8.941406 114.203125 11.394531 117.175781 11.394531 Z M 117.175781 1.960938 C 119.390625 1.960938 121.183594 3.753906 121.183594 5.96875 C 121.183594 8.1875 119.390625 9.976562 117.175781 9.976562 C 114.957031 9.976562 113.167969 8.1875 113.167969 5.96875 C 113.167969 3.753906 114.957031 1.960938 117.175781 1.960938 Z M 80.25 131.167969 C 77.234375 131.167969 74.828125 133.574219 74.828125 136.59375 C 74.828125 139.609375 77.234375 142.015625 80.25 142.015625 C 83.269531 142.015625 85.675781 139.609375 85.675781 136.59375 C 85.675781 133.621094 83.222656 131.167969 80.25 131.167969 Z M 80.25 140.601562 C 78.035156 140.601562 76.242188 138.808594 76.242188 136.59375 C 76.242188 134.375 78.035156 132.585938 80.25 132.585938 C 82.46875 132.585938 84.257812 134.375 84.257812 136.59375 C 84.257812 138.808594 82.46875 140.601562 80.25 140.601562 Z M 43.28125 131.167969 C 40.261719 131.167969 37.859375 133.574219 37.859375 136.59375 C 37.859375 139.609375 40.308594 142.015625 43.28125 142.015625 C 46.25 142.015625 48.703125 139.609375 48.703125 136.59375 C 48.703125 133.621094 46.296875 131.167969 43.28125 131.167969 Z M 43.28125 140.601562 C 41.0625 140.601562 39.273438 138.808594 39.273438 136.59375 C 39.273438 134.375 41.0625 132.585938 43.28125 132.585938 C 45.496094 132.585938 47.289062 134.375 47.289062 136.59375 C 47.289062 138.808594 45.496094 140.601562 43.28125 140.601562 Z M 6.355469 131.167969 C 3.339844 131.167969 0.933594 133.574219 0.933594 136.59375 C 0.933594 139.609375 3.339844 142.015625 6.355469 142.015625 C 9.375 142.015625 11.78125 139.609375 11.78125 136.59375 C 11.78125 133.621094 9.328125 131.167969 6.355469 131.167969 Z M 6.355469 140.601562 C 4.140625 140.601562 2.347656 138.808594 2.347656 136.59375 C 2.347656 134.375 4.140625 132.585938 6.355469 132.585938 C 8.574219 132.585938 10.367188 134.375 10.367188 136.59375 C 10.367188 138.808594 8.574219 140.601562 6.355469 140.601562 Z M 117.175781 131.167969 C 114.15625 131.167969 111.75 133.574219 111.75 136.59375 C 111.75 139.609375 114.15625 142.015625 117.175781 142.015625 C 120.191406 142.015625 122.597656 139.609375 122.597656 136.59375 C 122.597656 133.621094 120.144531 131.167969 117.175781 131.167969 Z M 117.175781 140.601562 C 114.957031 140.601562 113.167969 138.808594 113.167969 136.59375 C 113.167969 134.375 114.957031 132.585938 117.175781 132.585938 C 119.390625 132.585938 121.183594 134.375 121.183594 136.59375 C 121.183594 138.808594 119.390625 140.601562 117.175781 140.601562 Z M 117.175781 140.601562 " fill-opacity="1" fill-rule="nonzero"/></g></g></g></g><g mask="url(#82042ca6e6)"><g transform="matrix(1, 0, 0, 1, 1430, 255)"><g clip-path="url(#596c51b99d)"><path fill="#100f0e" d="M 109.664062 10.722656 L 208.480469 109.542969 L 109.664062 208.355469 L 10.847656 109.539062 Z M 109.664062 10.722656 " fill-opacity="1" fill-rule="nonzero"/><g clip-path="url(#0f22a88727)"><path fill="#100f0e" d="M 109.65625 218.210938 L 0.964844 109.519531 L 109.65625 0.828125 L 218.347656 109.519531 Z M 2.347656 109.519531 L 109.65625 216.828125 L 216.960938 109.519531 L 109.65625 2.214844 Z M 2.347656 109.519531 " fill-opacity="1" fill-rule="nonzero"/></g></g></g></g><g mask="url(#0e635cc0cb)"><g transform="matrix(1, 0, 0, 1, 1492, 178)"><g clip-path="url(#a631fab144)"><path fill="#f0f0f0" d="M 184.78125 17.230469 L 352.074219 184.527344 L 184.777344 351.820312 L 17.484375 184.523438 Z M 184.78125 17.230469 " fill-opacity="1" fill-rule="nonzero"/><g clip-path="url(#b031e2ab60)"><path fill="#f0f0f0" d="M 184.765625 368.507812 L 0.753906 184.496094 L 184.765625 0.480469 L 368.78125 184.496094 Z M 3.097656 184.496094 L 184.765625 366.164062 L 366.4375 184.496094 L 184.765625 2.824219 Z M 3.097656 184.496094 " fill-opacity="1" fill-rule="nonzero"/></g></g></g></g></svg>