<svg xmlns="http://www.w3.org/2000/svg" xmlns:xlink="http://www.w3.org/1999/xlink" width="500" zoomAndPan="magnify" viewBox="0 0 375 374.999991" height="500" preserveAspectRatio="xMidYMid meet" version="1.0"><defs><g/><clipPath id="bf366d6f87"><path d="M 285 135 L 309.375 135 L 309.375 195 L 285 195 Z M 285 135 " clip-rule="nonzero"/></clipPath><clipPath id="156f187f06"><path d="M 111 181 L 262 181 L 262 295.515625 L 111 295.515625 Z M 111 181 " clip-rule="nonzero"/></clipPath></defs><path fill="#ffffff" d="M 307.261719 170.582031 C 306.703125 166.226562 305.808594 161.769531 303.558594 157.996094 C 301.304688 154.21875 297.359375 151.214844 292.957031 151.042969 C 293.363281 150.136719 293.664062 149.199219 293.851562 148.226562 C 294.042969 147.253906 294.117188 146.273438 294.082031 145.285156 C 294.046875 144.292969 293.894531 143.320312 293.632812 142.363281 C 293.371094 141.410156 293.003906 140.496094 292.53125 139.625 C 291.519531 137.792969 289.835938 136.128906 287.796875 135.863281 C 288.5625 132.808594 288.808594 129.710938 288.535156 126.574219 C 288.324219 124.480469 287.894531 122.433594 287.25 120.429688 C 286.605469 118.425781 285.753906 116.515625 284.703125 114.691406 C 283.648438 112.871094 282.417969 111.179688 281.003906 109.617188 C 279.59375 108.058594 278.03125 106.664062 276.324219 105.4375 C 274.921875 104.445312 273.453125 103.570312 271.917969 102.808594 C 266.953125 100.332031 261.699219 99.054688 256.152344 98.984375 C 256.257812 97.878906 256.289062 96.769531 256.238281 95.660156 C 256.191406 94.550781 256.066406 93.453125 255.867188 92.359375 C 255.664062 91.269531 255.386719 90.195312 255.035156 89.144531 C 254.683594 88.089844 254.261719 87.066406 253.765625 86.074219 C 253.269531 85.078125 252.710938 84.125 252.082031 83.207031 C 251.453125 82.292969 250.765625 81.425781 250.015625 80.605469 C 249.265625 79.789062 248.464844 79.023438 247.605469 78.316406 C 246.75 77.609375 245.851562 76.96875 244.902344 76.386719 C 243.078125 75.292969 241.164062 74.382812 239.167969 73.65625 C 235.953125 72.347656 232.617188 71.570312 229.160156 71.328125 C 223.871094 71.085938 218.636719 72.714844 213.925781 75.136719 C 211.140625 76.589844 208.402344 78.386719 206.664062 80.945312 L 205.34375 81 C 203.234375 77.367188 200.371094 74.492188 196.742188 72.378906 C 195.277344 71.542969 193.738281 70.882812 192.125 70.390625 C 190.511719 69.898438 188.863281 69.585938 187.183594 69.457031 C 185.5 69.332031 183.824219 69.386719 182.15625 69.628906 C 180.488281 69.871094 178.863281 70.292969 177.289062 70.894531 C 175.410156 71.644531 173.667969 72.636719 172.066406 73.871094 C 170.464844 75.105469 169.058594 76.535156 167.851562 78.160156 L 166.316406 78.132812 C 164.539062 76.058594 161.574219 75.355469 158.816406 75.074219 C 152.4375 74.414062 145.746094 75.269531 140.1875 78.464844 C 135.828125 80.945312 132.292969 84.972656 130.683594 89.648438 L 129.085938 90.273438 C 126.746094 89.078125 123.984375 88.867188 121.335938 89.019531 C 111.167969 89.59375 101.25 95.488281 96.539062 104.554688 C 95.722656 106.160156 95.078125 107.828125 94.605469 109.5625 C 94.128906 111.296875 93.832031 113.058594 93.714844 114.855469 C 93.59375 116.648438 93.660156 118.4375 93.902344 120.21875 C 94.144531 122 94.566406 123.738281 95.164062 125.433594 C 90.707031 125.492188 86.375 127.410156 83.058594 130.367188 C 79.695312 133.472656 77.300781 137.203125 75.871094 141.550781 C 74.90625 144.300781 74.339844 147.226562 74.632812 150.121094 C 74.90625 152.496094 75.625 154.726562 76.792969 156.8125 C 72.3125 159.867188 68.5625 166.53125 68.625 171.894531 C 68.6875 177.375 71.046875 182.648438 74.386719 186.988281 C 76.050781 189.253906 78.105469 191.082031 80.550781 192.46875 L 80.699219 192.890625 C 78.707031 196.898438 78.578125 202.867188 79.34375 207.265625 C 80.132812 211.773438 82.085938 216.273438 85.695312 219.085938 C 87.898438 220.808594 90.582031 221.789062 93.273438 222.539062 C 96.265625 223.371094 99.382812 223.949219 102.472656 223.644531 C 105.5625 223.339844 108.652344 222.074219 110.703125 219.726562 C 111.988281 222.921875 114.683594 225.417969 117.753906 226.988281 C 120.824219 228.5625 124.269531 229.234375 127.695312 229.59375 C 130.839844 229.917969 134.101562 229.96875 137.085938 228.929688 C 139.84375 227.960938 142.355469 225.984375 143.40625 223.289062 L 144.171875 223.410156 C 147.328125 226.800781 151.027344 229.433594 155.269531 231.296875 C 164.617188 235.386719 178.359375 233.761719 185.5 229.265625 L 186.523438 229.335938 C 189.160156 232.460938 192.609375 234.550781 199.289062 235.632812 C 201.902344 236.105469 204.535156 236.277344 207.1875 236.15625 C 215.929688 235.609375 224.796875 232.402344 230.699219 225.925781 L 229.914062 225.890625 L 230.644531 225.523438 C 234.375 227.03125 238.25 227.675781 242.265625 227.460938 C 244.644531 227.308594 246.976562 226.902344 249.265625 226.234375 C 250.984375 225.796875 252.597656 225.117188 254.109375 224.195312 C 255.421875 223.347656 257.121094 222.257812 258.140625 221.0625 C 258.859375 220.226562 259.515625 219.347656 260.113281 218.425781 L 261.980469 218.457031 C 262.578125 218.808594 263.191406 219.121094 263.824219 219.394531 C 265.589844 220.207031 267.414062 220.832031 269.304688 221.277344 C 272.777344 222.027344 276.269531 222.140625 279.785156 221.617188 C 286.078125 220.609375 291.539062 216.132812 294.367188 210.4375 C 297.136719 204.851562 297.492188 198.242188 295.957031 192.203125 C 296.730469 191.785156 297.496094 191.347656 298.242188 190.898438 C 301.097656 189.164062 303.941406 187.160156 305.652344 184.289062 C 308.035156 180.257812 307.835938 175.246094 307.261719 170.582031 Z M 287.273438 137.765625 C 287.273438 137.765625 287.273438 137.726562 287.273438 137.707031 Z M 256.554688 99.839844 L 256.097656 99.640625 C 256.121094 99.4375 256.148438 99.230469 256.164062 99.023438 Z M 77.945312 158.738281 L 77.761719 159.890625 L 77.3125 157.726562 C 77.519531 158.066406 77.726562 158.40625 77.945312 158.738281 Z M 77.945312 158.738281 " fill-opacity="1" fill-rule="nonzero"/><path fill="#ffffff" d="M 295.9375 192.191406 C 296.710938 191.777344 297.476562 191.339844 298.222656 190.890625 C 301.078125 189.15625 303.921875 187.152344 305.632812 184.28125 C 308.054688 180.253906 307.835938 175.226562 307.246094 170.578125 C 306.691406 166.21875 305.792969 161.765625 303.542969 157.988281 C 301.292969 154.214844 297.34375 151.210938 292.945312 151.035156 C 293.351562 150.132812 293.648438 149.195312 293.839844 148.222656 C 294.027344 147.25 294.105469 146.269531 294.066406 145.277344 C 294.03125 144.289062 293.882812 143.316406 293.621094 142.359375 C 293.359375 141.402344 292.992188 140.492188 292.519531 139.621094 C 291.507812 137.789062 289.820312 136.125 287.78125 135.859375 C 288.546875 132.804688 288.792969 129.707031 288.519531 126.570312 C 288.308594 124.476562 287.882812 122.429688 287.238281 120.429688 C 286.59375 118.425781 285.746094 116.515625 284.695312 114.691406 C 283.644531 112.871094 282.410156 111.179688 281 109.621094 C 279.589844 108.058594 278.03125 106.664062 276.324219 105.4375 C 274.921875 104.445312 273.453125 103.570312 271.917969 102.808594 C 266.953125 100.332031 261.699219 99.054688 256.152344 98.984375 C 256.257812 97.878906 256.289062 96.769531 256.238281 95.660156 C 256.191406 94.550781 256.066406 93.453125 255.867188 92.359375 C 255.664062 91.269531 255.386719 90.195312 255.035156 89.144531 C 254.683594 88.089844 254.261719 87.066406 253.765625 86.074219 C 253.269531 85.078125 252.710938 84.125 252.082031 83.207031 C 251.453125 82.292969 250.765625 81.425781 250.015625 80.605469 C 249.265625 79.789062 248.464844 79.023438 247.605469 78.316406 C 246.75 77.609375 245.851562 76.96875 244.902344 76.386719 C 243.078125 75.292969 241.164062 74.382812 239.167969 73.65625 C 235.953125 72.347656 232.617188 71.570312 229.160156 71.328125 C 224.722656 71.148438 220.3125 72.25 216.234375 74.050781 C 213.816406 120.6875 192.835938 198.804688 78.246094 190.957031 C 78.964844 191.53125 79.734375 192.03125 80.546875 192.464844 L 80.695312 192.882812 C 78.699219 196.894531 78.574219 202.863281 79.339844 207.257812 C 80.128906 211.765625 82.082031 216.269531 85.691406 219.082031 C 87.894531 220.800781 90.578125 221.785156 93.269531 222.535156 C 96.261719 223.367188 99.378906 223.945312 102.46875 223.640625 C 105.558594 223.335938 108.648438 222.070312 110.699219 219.722656 C 111.984375 222.917969 114.679688 225.410156 117.75 226.984375 C 120.820312 228.558594 124.265625 229.230469 127.691406 229.589844 C 130.835938 229.914062 134.09375 229.960938 137.082031 228.925781 C 139.835938 227.957031 142.351562 225.976562 143.402344 223.285156 L 144.167969 223.40625 C 147.324219 226.796875 151.023438 229.425781 155.261719 231.292969 C 164.613281 235.378906 178.355469 233.757812 185.496094 229.261719 L 186.515625 229.332031 C 189.15625 232.457031 192.601562 234.546875 199.285156 235.628906 C 201.898438 236.101562 204.53125 236.273438 207.183594 236.148438 C 215.925781 235.601562 224.792969 232.398438 230.695312 225.917969 L 229.910156 225.886719 L 230.640625 225.519531 C 234.371094 227.023438 238.242188 227.671875 242.261719 227.453125 C 244.640625 227.304688 246.972656 226.898438 249.261719 226.230469 C 250.976562 225.792969 252.589844 225.113281 254.101562 224.191406 C 255.414062 223.34375 257.113281 222.253906 258.136719 221.058594 C 258.851562 220.222656 259.507812 219.34375 260.105469 218.417969 L 261.976562 218.453125 C 262.570312 218.804688 263.1875 219.113281 263.820312 219.386719 C 265.585938 220.199219 267.410156 220.828125 269.300781 221.269531 C 272.773438 222.023438 276.265625 222.136719 279.78125 221.609375 C 286.074219 220.601562 291.535156 216.128906 294.363281 210.429688 C 297.117188 204.847656 297.472656 198.238281 295.9375 192.191406 Z M 256.097656 99.640625 C 256.121094 99.4375 256.148438 99.230469 256.164062 99.023438 L 256.554688 99.839844 Z M 287.261719 137.765625 C 287.261719 137.765625 287.261719 137.726562 287.261719 137.707031 Z M 287.261719 137.765625 " fill-opacity="1" fill-rule="nonzero"/><path fill="#d9d9d9" d="M 99.691406 133.121094 C 99.308594 132.773438 98.886719 132.335938 98.507812 131.976562 C 98.40625 131.878906 98.222656 131.679688 98.136719 131.574219 C 97.878906 131.277344 97.316406 130.574219 97.074219 130.292969 C 96.785156 129.894531 96.253906 129.109375 95.964844 128.691406 C 91.636719 121.65625 91.195312 112.460938 94.582031 104.929688 C 99.695312 93.476562 113.191406 86.339844 125.488281 88.707031 C 126.957031 89.027344 128.300781 89.628906 129.519531 90.515625 C 128.183594 89.96875 126.796875 89.664062 125.355469 89.609375 C 115.671875 89.464844 105.871094 94.265625 100.105469 101.941406 C 96.347656 106.851562 94.707031 113.105469 94.980469 119.265625 C 95.0625 120.234375 95.152344 121.414062 95.332031 122.367188 C 95.378906 122.714844 95.441406 123.058594 95.527344 123.398438 C 95.710938 124.367188 96.046875 125.511719 96.328125 126.449219 C 96.445312 126.742188 96.773438 127.644531 96.886719 127.941406 C 97.097656 128.503906 97.515625 129.335938 97.753906 129.878906 C 97.9375 130.210938 98.347656 130.949219 98.53125 131.289062 C 98.882812 131.917969 99.308594 132.496094 99.691406 133.128906 Z M 99.691406 133.121094 " fill-opacity="1" fill-rule="nonzero"/><path fill="#d9d9d9" d="M 130.117188 98.746094 C 129.425781 96.859375 129.113281 94.910156 129.175781 92.902344 C 129.238281 90.894531 129.671875 88.96875 130.472656 87.125 C 133.335938 80.070312 140.347656 75.304688 147.730469 74.050781 C 152.714844 73.136719 161.917969 73.320312 165.613281 77.136719 C 165.996094 77.546875 166.320312 78 166.582031 78.496094 C 165.800781 77.757812 164.898438 77.210938 163.882812 76.855469 C 162.890625 76.527344 161.875 76.3125 160.835938 76.210938 C 155.15625 75.78125 149.265625 76.367188 143.957031 78.472656 C 135.800781 81.699219 129.503906 89.546875 130.117188 98.746094 Z M 130.117188 98.746094 " fill-opacity="1" fill-rule="nonzero"/><path fill="#d9d9d9" d="M 163.398438 85.894531 C 163.417969 85.972656 163.464844 86.027344 163.53125 86.070312 C 163.597656 86.109375 163.667969 86.121094 163.746094 86.105469 C 164.0625 86.070312 164.117188 85.734375 164.15625 85.464844 C 164.273438 84.648438 164.433594 83.839844 164.640625 83.042969 C 168.371094 70.277344 182.519531 64.503906 194.507812 69.597656 C 201.988281 72.664062 207.617188 80.34375 208.160156 88.269531 C 204.894531 78.726562 196.460938 71.394531 186.328125 71.050781 C 177.613281 70.527344 169.410156 75.617188 165.507812 83.367188 L 165.078125 84.21875 C 164.851562 84.84375 164.574219 85.441406 164.253906 86.019531 C 164.03125 86.328125 163.40625 86.316406 163.398438 85.886719 Z M 163.398438 85.894531 " fill-opacity="1" fill-rule="nonzero"/><path fill="#d9d9d9" d="M 206.066406 81.96875 C 208.285156 76.410156 215.6875 72.707031 221.160156 70.953125 C 227.773438 68.886719 234.039062 69.835938 240.359375 72.363281 C 243.480469 73.515625 246.308594 75.175781 248.835938 77.339844 C 256.34375 83.742188 259.167969 95.09375 255.128906 103.96875 C 256.984375 94.832031 253.894531 85.449219 246.8125 79.707031 C 244.492188 77.859375 241.9375 76.425781 239.148438 75.414062 C 235.011719 73.773438 230.664062 72.5625 226.191406 72.832031 C 221.714844 73.105469 217.347656 74.503906 213.21875 76.421875 C 210.453125 77.714844 207.800781 79.421875 206.054688 81.980469 Z M 206.066406 81.96875 " fill-opacity="1" fill-rule="nonzero"/><path fill="#d9d9d9" d="M 256.148438 98.984375 C 265.179688 98.085938 275.03125 101.34375 281.53125 107.933594 C 288.824219 115.199219 291.976562 126.335938 288.910156 136.253906 C 288.230469 138.492188 287.285156 140.609375 286.078125 142.613281 C 284.488281 145.253906 282.46875 147.511719 280.019531 149.390625 C 286.617188 141.429688 288.984375 130.644531 285.730469 120.945312 C 281.371094 107.910156 269.4375 100.65625 256.148438 98.96875 Z M 256.148438 98.984375 " fill-opacity="1" fill-rule="nonzero"/><g clip-path="url(#bf366d6f87)"><path fill="#d9d9d9" d="M 287.308594 135.832031 C 289.78125 135.664062 291.921875 137.550781 293.117188 139.5625 C 293.984375 140.996094 294.558594 142.539062 294.839844 144.1875 C 295.125 145.839844 295.097656 147.484375 294.765625 149.125 C 294.589844 149.953125 294.34375 150.761719 294.023438 151.546875 L 292.972656 149.839844 C 294.480469 149.851562 295.929688 150.136719 297.332031 150.691406 C 304.316406 153.472656 307.5 160.859375 308.492188 167.835938 C 308.964844 170.554688 309.199219 173.292969 309.199219 176.050781 C 309.050781 184.589844 304.839844 188.71875 297.546875 192.328125 C 293.96875 194.132812 289.800781 195.585938 285.789062 194.71875 C 291.113281 194.71875 295.71875 191.550781 299.859375 188.535156 C 305.851562 184.179688 306.609375 179.15625 305.816406 172.222656 C 305.222656 167.28125 304.429688 162.054688 301.605469 157.863281 C 299.621094 154.957031 296.496094 152.566406 292.890625 152.257812 C 292.6875 152.253906 292.5 152.203125 292.320312 152.101562 C 292.144531 152.003906 292.003906 151.867188 291.898438 151.691406 C 291.789062 151.519531 291.734375 151.332031 291.722656 151.128906 C 291.710938 150.925781 291.75 150.734375 291.839844 150.550781 C 292.648438 148.914062 293.078125 147.183594 293.121094 145.359375 C 293.167969 143.535156 292.824219 141.785156 292.097656 140.109375 C 291.214844 138.09375 289.601562 136.148438 287.296875 135.832031 Z M 287.308594 135.832031 " fill-opacity="1" fill-rule="nonzero"/></g><path fill="#d9d9d9" d="M 260.125 217.21875 C 262.234375 218.445312 264.589844 219.15625 266.90625 219.769531 C 269.207031 220.332031 271.542969 220.613281 273.910156 220.609375 C 276.230469 220.648438 278.515625 220.386719 280.765625 219.828125 C 282.949219 219.1875 284.96875 218.207031 286.816406 216.882812 C 288.667969 215.558594 290.25 213.964844 291.558594 212.105469 C 295 207.328125 296.265625 201.324219 296.105469 195.472656 C 296.066406 194.25 295.957031 193.054688 295.824219 191.8125 C 296.441406 193.28125 296.910156 194.796875 297.230469 196.355469 C 297.550781 197.917969 297.714844 199.492188 297.726562 201.085938 C 297.734375 202.679688 297.589844 204.257812 297.292969 205.820312 C 296.992188 207.386719 296.542969 208.90625 295.945312 210.382812 C 293.21875 217.074219 286.828125 222.367188 279.554688 223.179688 C 275.003906 223.695312 270.613281 223.066406 266.386719 221.300781 C 264.121094 220.253906 261.863281 219.070312 260.125 217.242188 Z M 260.125 217.21875 " fill-opacity="1" fill-rule="nonzero"/><path fill="#d9d9d9" d="M 226.339844 223.320312 C 233.222656 226.300781 240.5625 226.964844 247.667969 224.984375 C 249.609375 224.546875 251.445312 223.839844 253.179688 222.859375 C 254.574219 221.972656 255.933594 221.1875 257.050781 220.03125 C 260.925781 215.867188 263.003906 210.742188 264.605469 205.15625 C 264.804688 210.574219 263.347656 216.382812 260.082031 220.9375 C 258.808594 222.898438 256.816406 224.328125 254.9375 225.570312 C 252.941406 226.878906 250.710938 227.566406 248.46875 228.113281 C 240.9375 230.050781 232.191406 228.484375 226.355469 223.320312 Z M 226.339844 223.320312 " fill-opacity="1" fill-rule="nonzero"/><path fill="#d9d9d9" d="M 230.6875 225.914062 C 223.886719 235.308594 209.914062 239.316406 198.808594 237.191406 C 195.296875 236.59375 191.585938 235.414062 188.738281 233.089844 C 185.890625 230.765625 184.171875 227.425781 183.015625 224.117188 C 184.5625 225.867188 185.996094 227.671875 187.625 229.128906 C 189.21875 230.574219 191.023438 231.671875 193.042969 232.417969 C 197.21875 233.808594 201.503906 234.546875 205.902344 234.625 C 214.832031 234.507812 223.792969 231.882812 230.6875 225.910156 Z M 230.6875 225.914062 " fill-opacity="1" fill-rule="nonzero"/><path fill="#d9d9d9" d="M 138.492188 215.257812 C 143.203125 221.71875 149.324219 227.136719 156.75 230.132812 C 162.003906 232.113281 167.6875 232.507812 173.347656 232.070312 C 177.9375 231.640625 182.511719 230.738281 186.617188 228.484375 C 184.839844 230.125 182.828125 231.402344 180.585938 232.316406 C 172.757812 235.539062 163.597656 236.121094 155.574219 233.183594 C 147.679688 230.058594 141.003906 223.425781 138.492188 215.269531 Z M 138.492188 215.257812 " fill-opacity="1" fill-rule="nonzero"/><path fill="#d9d9d9" d="M 143.636719 222.5625 C 142.988281 225.953125 140.054688 228.554688 136.859375 229.707031 C 133.664062 230.859375 130.082031 230.902344 126.691406 230.625 C 121.507812 230.21875 116.09375 228.6875 112.300781 224.898438 C 110.96875 223.582031 109.945312 222.054688 109.234375 220.324219 L 111.921875 220.773438 C 111.039062 221.792969 110.015625 222.640625 108.851562 223.316406 C 103.285156 226.578125 96.484375 225.378906 90.71875 223.339844 C 82.933594 220.796875 79.097656 214.371094 78.386719 206.496094 C 78.027344 201.851562 78.386719 196.859375 80.777344 192.769531 C 79.132812 197.042969 79.292969 201.832031 80.070312 206.257812 C 81.429688 213.140625 84.699219 218.429688 91.691406 220.460938 C 95.71875 221.691406 100.292969 222.734375 104.40625 221.644531 C 106.402344 221.167969 108.097656 220.183594 109.496094 218.679688 C 109.582031 218.574219 109.683594 218.484375 109.796875 218.40625 C 109.910156 218.328125 110.03125 218.261719 110.160156 218.214844 C 110.289062 218.167969 110.421875 218.136719 110.558594 218.125 C 110.695312 218.113281 110.832031 218.117188 110.964844 218.140625 C 111.101562 218.164062 111.230469 218.203125 111.355469 218.257812 C 111.484375 218.316406 111.597656 218.386719 111.703125 218.476562 C 111.8125 218.5625 111.90625 218.660156 111.984375 218.773438 C 112.066406 218.882812 112.132812 219.003906 112.179688 219.132812 C 112.730469 220.488281 113.511719 221.695312 114.523438 222.753906 C 117.738281 226.167969 122.441406 227.617188 126.996094 228.332031 C 131.699219 229.082031 136.789062 229.375 140.722656 226.371094 C 142.046875 225.371094 143.015625 224.105469 143.628906 222.5625 Z M 143.636719 222.5625 " fill-opacity="1" fill-rule="nonzero"/><path fill="#d9d9d9" d="M 84.804688 193.730469 C 78.425781 194.238281 73.308594 188.625 70.304688 183.59375 C 67.109375 178.0625 65.808594 171.210938 68.753906 165.339844 C 69.515625 163.699219 70.488281 162.199219 71.679688 160.835938 C 72.867188 159.472656 74.222656 158.304688 75.746094 157.332031 C 76.179688 157.074219 76.625 156.84375 77.089844 156.644531 C 75.65625 157.980469 74.441406 159.488281 73.4375 161.171875 C 71.554688 164.296875 70.128906 167.992188 70.144531 171.601562 C 70.210938 173.425781 70.496094 175.214844 71.007812 176.96875 C 72.878906 183.234375 78.011719 192.03125 84.804688 193.753906 Z M 84.804688 193.730469 " fill-opacity="1" fill-rule="nonzero"/><path fill="#d9d9d9" d="M 82.953125 165.21875 C 77.761719 160.8125 72.726562 154.847656 73.019531 147.648438 C 73.503906 138.539062 79.5 128.789062 88.472656 126.023438 C 89.847656 125.59375 91.261719 125.347656 92.703125 125.289062 C 93.550781 125.257812 94.398438 125.300781 95.238281 125.417969 C 86.4375 126.871094 80.289062 133.765625 77.5 141.804688 C 76.457031 144.707031 75.789062 147.75 76.164062 150.804688 C 76.835938 156.179688 80.203125 160.707031 82.941406 165.226562 Z M 82.953125 165.21875 " fill-opacity="1" fill-rule="nonzero"/><path fill="#d9d9d9" d="M 104.179688 145.492188 C 100.515625 144.984375 96.8125 147.832031 94.496094 150.414062 C 93.433594 151.644531 92.558594 152.996094 91.871094 154.46875 C 87.445312 163.625 92.691406 174.277344 102.097656 177.589844 C 100.121094 177.25 98.277344 176.566406 96.558594 175.539062 C 94.839844 174.511719 93.367188 173.203125 92.136719 171.625 C 86.738281 164.921875 87.546875 155.511719 93.5 149.46875 C 96.066406 146.90625 100.480469 144.222656 104.179688 145.492188 Z M 104.179688 145.492188 " fill-opacity="1" fill-rule="nonzero"/><path fill="#d9d9d9" d="M 121.855469 173.390625 C 118.53125 172.609375 115.25 172.753906 112.007812 173.828125 C 108.84375 174.867188 105.882812 176.320312 103.121094 178.183594 C 98.722656 181.171875 96.601562 184.917969 95.992188 190.175781 C 95.566406 193.425781 95.945312 196.578125 97.128906 199.632812 C 97.761719 201.117188 98.613281 202.464844 99.679688 203.675781 C 100.746094 204.886719 101.972656 205.898438 103.363281 206.71875 C 108.738281 210.238281 115.613281 213.011719 121.929688 210.410156 C 123.503906 209.789062 124.875 208.863281 126.039062 207.632812 C 123.992188 210.402344 120.582031 211.941406 117.191406 212.289062 C 113.804688 212.636719 110.25 211.804688 107.09375 210.421875 C 103.9375 209.035156 100.863281 207.332031 98.40625 204.78125 C 94.75 200.84375 93.566406 195.15625 94.261719 189.949219 C 94.921875 184.332031 97.511719 179.984375 102.359375 177.011719 C 105.292969 175.191406 108.429688 173.851562 111.773438 172.988281 C 113.4375 172.554688 115.128906 172.371094 116.84375 172.4375 C 118.5625 172.507812 120.234375 172.824219 121.855469 173.390625 Z M 121.855469 173.390625 " fill-opacity="1" fill-rule="nonzero"/><path fill="#d9d9d9" d="M 261.628906 120.84375 C 265.015625 120.84375 268.675781 120.964844 271.796875 122.578125 C 275.617188 124.511719 277.9375 128.625 278.71875 132.746094 C 279.53125 137.4375 279.363281 143.722656 276.78125 147.828125 C 274.046875 152.277344 268.859375 154.917969 263.710938 155.089844 C 261.171875 155.183594 258.703125 154.816406 256.300781 153.980469 C 258.734375 154.441406 261.179688 154.519531 263.636719 154.21875 C 268.320312 153.660156 272.9375 151.082031 275.316406 146.957031 C 277.53125 143.183594 277.683594 137.320312 277.039062 133.050781 C 276.472656 129.566406 274.832031 126.164062 271.964844 124.042969 C 268.980469 121.851562 265.1875 121.417969 261.597656 120.863281 Z M 261.628906 120.84375 " fill-opacity="1" fill-rule="nonzero"/><path fill="#d9d9d9" d="M 265.410156 153.886719 C 265.582031 153.976562 265.761719 153.988281 265.945312 153.921875 C 266.796875 153.75 267.539062 153.230469 268.441406 153.234375 C 272.382812 153.824219 273.40625 160.011719 272.425781 163.195312 C 272.003906 164.738281 271.109375 166.347656 269.644531 167.066406 C 271.277344 164.496094 271.257812 161.480469 270.820312 158.625 C 270.457031 156.90625 269.945312 154.851562 268.28125 153.984375 C 267.550781 153.902344 266.722656 154.15625 265.957031 154.082031 C 265.765625 154.082031 265.519531 154.046875 265.410156 153.871094 Z M 265.410156 153.886719 " fill-opacity="1" fill-rule="nonzero"/><path fill="#d9d9d9" d="M 256.871094 140.46875 C 254.558594 142.167969 252.117188 143.910156 250.539062 146.332031 C 246.566406 152.625 249.125 160.597656 254.414062 165.28125 C 255.453125 166.242188 256.566406 167.105469 257.753906 167.875 C 257.921875 167.988281 258.039062 168.140625 258.101562 168.332031 C 258.167969 168.523438 258.164062 168.710938 258.097656 168.902344 C 256.605469 173.152344 254.949219 177.617188 255.785156 182.144531 C 256.160156 184.140625 256.914062 185.980469 258.046875 187.667969 C 259.175781 189.355469 260.59375 190.75 262.300781 191.851562 C 267.378906 195.074219 274.210938 194.640625 279.085938 191.070312 C 278.5625 191.542969 278.007812 191.984375 277.425781 192.390625 C 275.394531 193.726562 273.171875 194.535156 270.757812 194.8125 C 263.921875 195.652344 257.546875 191.609375 254.96875 185.289062 C 252.550781 179.761719 254.4375 173.605469 256.460938 168.296875 L 256.800781 169.320312 C 254.214844 167.65625 252.054688 165.558594 250.3125 163.023438 C 246.832031 158.070312 246.15625 150.851562 249.910156 145.867188 C 251.730469 143.445312 254.320312 141.917969 256.878906 140.453125 Z M 256.871094 140.46875 " fill-opacity="1" fill-rule="nonzero"/><path fill="#f0f0f0" d="M 266.765625 125.375 C 267.378906 125.664062 267.964844 125.992188 268.527344 126.371094 C 269.089844 126.746094 269.621094 127.164062 270.117188 127.621094 C 270.617188 128.078125 271.078125 128.574219 271.5 129.101562 C 271.925781 129.628906 272.304688 130.1875 272.644531 130.773438 C 272.980469 131.359375 273.273438 131.96875 273.519531 132.597656 C 273.761719 133.230469 273.960938 133.875 274.105469 134.535156 C 274.253906 135.195312 274.347656 135.863281 274.390625 136.539062 C 274.4375 137.214844 274.429688 137.890625 274.371094 138.5625 C 274.046875 142.132812 272.839844 145.910156 269.90625 148.214844 C 268.710938 149.191406 267.371094 149.882812 265.882812 150.289062 C 264.394531 150.695312 262.886719 150.785156 261.359375 150.550781 L 261.359375 150.378906 C 264.175781 149.941406 266.636719 148.769531 268.746094 146.859375 C 270.371094 145.339844 271.566406 143.535156 272.332031 141.445312 C 272.46875 140.960938 272.648438 140.441406 272.757812 139.953125 C 272.988281 138.9375 273.125 137.910156 273.171875 136.871094 C 273.34375 132.226562 270.648438 127.921875 266.6875 125.53125 L 266.765625 125.371094 Z M 266.765625 125.375 " fill-opacity="1" fill-rule="nonzero"/><path fill="#d9d9d9" d="M 211.640625 223.230469 C 213.601562 223.949219 215.582031 224.023438 217.589844 223.464844 C 221.582031 222.46875 225.371094 221.566406 227.644531 217.898438 C 228.710938 216.128906 229.613281 214.277344 230.351562 212.347656 C 230.277344 214.53125 229.78125 216.609375 228.863281 218.589844 C 227.367188 221.792969 224.359375 223.59375 220.996094 224.300781 C 217.789062 225.015625 214.347656 225.523438 211.640625 223.230469 Z M 211.640625 223.230469 " fill-opacity="1" fill-rule="nonzero"/><path fill="#d9d9d9" d="M 174.5625 217.214844 C 174.351562 217.164062 174.140625 217.101562 173.933594 217.050781 L 174.058594 216.816406 C 177.074219 217.929688 180.160156 219.328125 183.292969 219.722656 C 184.851562 219.878906 186.386719 219.769531 187.90625 219.386719 C 189.496094 218.988281 190.992188 218.363281 192.394531 217.515625 C 190.375 220.386719 186.585938 221.839844 183.117188 221.496094 C 181.355469 221.28125 179.695312 220.75 178.136719 219.90625 C 176.601562 219.140625 175.195312 218.191406 173.917969 217.050781 C 173.816406 216.996094 173.804688 216.925781 173.875 216.835938 C 173.933594 216.777344 173.992188 216.777344 174.050781 216.835938 C 174.21875 216.96875 174.394531 217.097656 174.5625 217.238281 Z M 174.5625 217.214844 " fill-opacity="1" fill-rule="nonzero"/><path fill="#f0f0f0" d="M 101.269531 149.386719 C 97.394531 153.113281 94.910156 159.015625 96.964844 164.242188 C 97.515625 165.726562 98.101562 167.226562 98.734375 168.679688 C 99.417969 170.269531 100.210938 171.773438 100.847656 173.40625 L 100.628906 173.609375 C 99.5625 173.011719 98.59375 172.28125 97.722656 171.421875 C 95.867188 169.644531 94.675781 167.503906 94.140625 164.992188 C 93.777344 163.132812 93.765625 161.269531 94.109375 159.40625 C 94.449219 157.542969 95.125 155.804688 96.125 154.199219 C 97.425781 152.15625 99.085938 150.472656 101.113281 149.148438 L 101.289062 149.386719 Z M 101.269531 149.386719 " fill-opacity="1" fill-rule="nonzero"/><path fill="#f0f0f0" d="M 100.65625 185.660156 C 100.148438 190.898438 100.816406 196.796875 104.328125 200.902344 C 106.265625 203.050781 109.003906 204.082031 111.644531 205.0625 C 113.929688 205.828125 116.25 206.257812 118.59375 206.882812 L 118.59375 207.175781 C 116.839844 207.757812 115.039062 208.027344 113.191406 207.984375 C 111.851562 207.996094 110.542969 207.804688 109.261719 207.40625 C 107.984375 207.011719 106.796875 206.425781 105.699219 205.65625 C 101.96875 202.964844 99.886719 198.574219 99.550781 194.070312 C 99.316406 191.195312 99.585938 188.371094 100.359375 185.59375 L 100.644531 185.660156 Z M 100.65625 185.660156 " fill-opacity="1" fill-rule="nonzero"/><path fill="#f0f0f0" d="M 76.335938 166.046875 C 76.164062 167.4375 76.144531 168.832031 76.273438 170.230469 C 76.402344 171.628906 76.679688 172.996094 77.105469 174.332031 C 77.527344 175.667969 78.09375 176.945312 78.792969 178.160156 C 79.492188 179.375 80.316406 180.503906 81.261719 181.539062 C 82.777344 183.171875 84.167969 184.832031 85.675781 186.503906 C 86.457031 187.382812 87.246094 188.234375 87.972656 189.199219 L 87.8125 189.453125 C 87.214844 189.3125 86.625 189.136719 86.050781 188.921875 C 84.605469 188.375 83.277344 187.625 82.0625 186.671875 C 80.847656 185.714844 79.804688 184.605469 78.929688 183.332031 C 76.992188 180.222656 75.511719 176.738281 75.238281 173.058594 C 75.015625 170.640625 75.285156 168.28125 76.050781 165.976562 L 76.335938 166.0625 Z M 76.335938 166.046875 " fill-opacity="1" fill-rule="nonzero"/><path fill="#f0f0f0" d="M 83.964844 199.1875 C 84.269531 204.785156 86.417969 210.925781 91.625 213.613281 C 92.03125 213.824219 92.480469 213.980469 92.902344 214.152344 L 94.011719 214.492188 C 97.074219 215.246094 100.179688 215.730469 103.324219 215.945312 C 104.007812 215.988281 104.699219 216.046875 105.414062 216.164062 L 105.464844 216.453125 C 101.980469 218.191406 97.636719 218.792969 93.84375 217.578125 C 92.246094 217.019531 90.78125 216.21875 89.453125 215.164062 C 88.125 214.113281 87.007812 212.871094 86.097656 211.441406 C 83.882812 207.78125 83.195312 203.3125 83.679688 199.160156 L 83.972656 199.183594 Z M 83.964844 199.1875 " fill-opacity="1" fill-rule="nonzero"/><path fill="#f0f0f0" d="M 92.660156 130.472656 C 90.804688 132.054688 89.183594 133.84375 87.796875 135.84375 C 86.40625 137.839844 85.296875 139.984375 84.460938 142.273438 C 83.707031 144.5 83.59375 146.824219 83.316406 149.128906 C 83.042969 151.519531 83.09375 153.972656 83.003906 156.390625 L 82.722656 156.480469 C 82.34375 155.9375 82.011719 155.371094 81.726562 154.78125 C 81.003906 153.269531 80.566406 151.683594 80.414062 150.019531 C 80.257812 148.351562 80.398438 146.710938 80.832031 145.097656 C 81.964844 141.28125 83.886719 137.914062 86.597656 135 C 88.328125 133.113281 90.292969 131.519531 92.496094 130.21875 L 92.660156 130.464844 Z M 92.660156 130.472656 " fill-opacity="1" fill-rule="nonzero"/><path fill="#f0f0f0" d="M 122.699219 95.25 C 116.402344 97.457031 110.417969 101.1875 106.609375 106.714844 C 104.457031 109.90625 103.539062 113.683594 102.855469 117.414062 C 102.816406 117.8125 102.683594 118.835938 102.628906 119.234375 C 102.574219 119.636719 102.570312 120.058594 102.535156 120.46875 C 102.375 122.183594 102.429688 123.859375 102.332031 125.582031 L 102.046875 125.652344 C 101.378906 124.242188 100.878906 122.773438 100.550781 121.246094 C 99.796875 117.453125 100.066406 113.410156 101.753906 109.890625 C 103.394531 106.609375 105.632812 103.808594 108.472656 101.484375 C 112.667969 98.175781 117.386719 96 122.628906 94.960938 Z M 122.699219 95.25 " fill-opacity="1" fill-rule="nonzero"/><path fill="#f0f0f0" d="M 254.277344 146.898438 C 253.261719 150.183594 253.210938 153.484375 254.121094 156.804688 C 254.660156 158.339844 255.414062 159.757812 256.390625 161.058594 C 257.382812 162.402344 258.484375 163.648438 259.691406 164.800781 L 259.613281 164.933594 C 258.769531 164.652344 257.976562 164.257812 257.242188 163.757812 C 252.574219 160.726562 251.882812 154.246094 253.269531 149.285156 C 253.492188 148.453125 253.785156 147.644531 254.140625 146.863281 L 254.277344 146.917969 Z M 254.277344 146.898438 " fill-opacity="1" fill-rule="nonzero"/><path fill="#f0f0f0" d="M 261.105469 172.4375 C 260.621094 176.367188 260.621094 180.988281 263.144531 184.230469 C 263.859375 185.0625 264.726562 185.683594 265.742188 186.089844 C 266.445312 186.363281 267.109375 186.65625 267.84375 186.875 C 269.78125 187.542969 271.910156 187.816406 273.925781 188.363281 L 273.960938 188.65625 C 272.925781 189.1875 271.839844 189.550781 270.695312 189.746094 C 266.726562 190.390625 263.359375 189.074219 261.203125 185.605469 C 259.304688 182.589844 259.265625 178.890625 259.921875 175.53125 C 260.132812 174.449219 260.433594 173.390625 260.820312 172.355469 Z M 261.105469 172.4375 " fill-opacity="1" fill-rule="nonzero"/><path fill="#2b2b2b" d="M 169.976562 123.488281 C 163.914062 120.394531 155.863281 119.71875 149.617188 122.429688 C 148.898438 122.722656 148.222656 123.097656 147.59375 123.550781 C 146.964844 124.003906 146.394531 124.527344 145.890625 125.117188 C 145.386719 125.707031 144.957031 126.347656 144.605469 127.039062 C 144.253906 127.730469 143.988281 128.453125 143.808594 129.210938 C 143.707031 129.765625 143.667969 130.328125 143.6875 130.894531 L 144.09375 131.046875 C 146.078125 129.761719 147.726562 128.304688 149.671875 127.023438 L 152.207031 125.265625 C 154.796875 123.328125 158.542969 122.703125 162.140625 122.730469 C 164.734375 122.761719 167.289062 123.105469 169.804688 123.761719 L 169.996094 123.460938 Z M 169.976562 123.488281 " fill-opacity="1" fill-rule="nonzero"/><path fill="#2b2b2b" d="M 203.707031 122.363281 C 209.5625 118.902344 217.558594 117.726562 223.957031 120.042969 C 224.699219 120.292969 225.398438 120.621094 226.058594 121.035156 C 226.714844 121.453125 227.316406 121.9375 227.859375 122.496094 C 228.402344 123.054688 228.871094 123.671875 229.269531 124.34375 C 229.664062 125.015625 229.972656 125.722656 230.199219 126.46875 C 230.332031 127.019531 230.410156 127.578125 230.425781 128.144531 L 230.03125 128.320312 C 227.96875 127.160156 226.234375 125.8125 224.21875 124.648438 L 221.5625 123.054688 C 218.855469 121.304688 215.082031 120.890625 211.492188 121.144531 C 208.902344 121.339844 206.375 121.84375 203.910156 122.652344 L 203.695312 122.363281 Z M 203.707031 122.363281 " fill-opacity="1" fill-rule="nonzero"/><path fill="#f0f0f0" d="M 165.726562 133.046875 C 166.289062 133.050781 166.847656 133.09375 167.40625 133.175781 C 167.964844 133.257812 168.519531 133.375 169.070312 133.527344 C 169.617188 133.683594 170.160156 133.875 170.695312 134.101562 C 171.230469 134.328125 171.757812 134.589844 172.273438 134.882812 C 172.789062 135.179688 173.292969 135.511719 173.78125 135.875 C 174.273438 136.238281 174.75 136.632812 175.214844 137.058594 C 175.675781 137.484375 176.121094 137.941406 176.550781 138.429688 C 176.980469 138.914062 177.390625 139.429688 177.78125 139.96875 C 178.171875 140.511719 178.542969 141.078125 178.890625 141.667969 C 179.242188 142.257812 179.570312 142.871094 179.875 143.503906 C 180.179688 144.140625 180.460938 144.792969 180.71875 145.464844 C 180.972656 146.136719 181.207031 146.824219 181.414062 147.527344 C 181.621094 148.230469 181.800781 148.949219 181.957031 149.675781 C 182.109375 150.402344 182.238281 151.140625 182.339844 151.886719 C 182.441406 152.632812 182.515625 153.382812 182.5625 154.136719 C 182.605469 154.894531 182.625 155.652344 182.617188 156.410156 C 182.609375 157.167969 182.574219 157.925781 182.507812 158.679688 C 182.445312 159.433594 182.355469 160.183594 182.234375 160.925781 C 182.117188 161.667969 181.972656 162.402344 181.800781 163.125 C 181.628906 163.851562 181.433594 164.5625 181.210938 165.257812 C 180.984375 165.957031 180.738281 166.640625 180.464844 167.304688 C 180.191406 167.972656 179.898438 168.621094 179.578125 169.246094 C 179.257812 169.875 178.917969 170.480469 178.554688 171.0625 C 178.191406 171.644531 177.808594 172.199219 177.402344 172.734375 C 177 173.265625 176.578125 173.769531 176.136719 174.246094 C 175.699219 174.722656 175.242188 175.167969 174.769531 175.582031 C 174.296875 176 173.8125 176.382812 173.3125 176.734375 C 172.8125 177.085938 172.300781 177.40625 171.777344 177.691406 C 171.257812 177.972656 170.726562 178.222656 170.183594 178.4375 C 169.644531 178.652344 169.097656 178.828125 168.546875 178.972656 C 167.992188 179.113281 167.4375 179.21875 166.875 179.285156 C 166.316406 179.355469 165.753906 179.382812 165.191406 179.378906 C 164.628906 179.371094 164.070312 179.328125 163.511719 179.246094 C 162.953125 179.167969 162.398438 179.046875 161.851562 178.894531 C 161.300781 178.738281 160.757812 178.550781 160.222656 178.324219 C 159.6875 178.097656 159.164062 177.835938 158.648438 177.539062 C 158.128906 177.242188 157.628906 176.914062 157.136719 176.550781 C 156.644531 176.1875 156.167969 175.789062 155.703125 175.363281 C 155.242188 174.9375 154.796875 174.480469 154.367188 173.992188 C 153.9375 173.507812 153.527344 172.992188 153.136719 172.453125 C 152.746094 171.910156 152.375 171.347656 152.027344 170.753906 C 151.675781 170.164062 151.347656 169.550781 151.042969 168.917969 C 150.738281 168.285156 150.457031 167.628906 150.203125 166.957031 C 149.945312 166.285156 149.710938 165.597656 149.503906 164.894531 C 149.296875 164.191406 149.117188 163.476562 148.960938 162.746094 C 148.808594 162.019531 148.679688 161.28125 148.578125 160.539062 C 148.476562 159.792969 148.402344 159.042969 148.359375 158.285156 C 148.3125 157.53125 148.292969 156.773438 148.300781 156.015625 C 148.308594 155.253906 148.347656 154.5 148.410156 153.746094 C 148.472656 152.988281 148.566406 152.242188 148.683594 151.5 C 148.800781 150.753906 148.945312 150.023438 149.117188 149.296875 C 149.289062 148.574219 149.488281 147.863281 149.710938 147.164062 C 149.933594 146.464844 150.179688 145.78125 150.453125 145.117188 C 150.726562 144.449219 151.023438 143.804688 151.339844 143.175781 C 151.660156 142.550781 152.003906 141.945312 152.367188 141.363281 C 152.726562 140.78125 153.113281 140.222656 153.515625 139.691406 C 153.917969 139.160156 154.339844 138.65625 154.78125 138.179688 C 155.21875 137.703125 155.675781 137.253906 156.148438 136.839844 C 156.621094 136.421875 157.105469 136.039062 157.605469 135.6875 C 158.105469 135.335938 158.617188 135.015625 159.140625 134.734375 C 159.664062 134.449219 160.195312 134.199219 160.734375 133.984375 C 161.273438 133.769531 161.820312 133.59375 162.375 133.453125 C 162.925781 133.308594 163.484375 133.207031 164.042969 133.136719 C 164.601562 133.070312 165.164062 133.039062 165.726562 133.046875 Z M 165.726562 133.046875 " fill-opacity="1" fill-rule="nonzero"/><path fill="#f0f0f0" d="M 208.050781 133.539062 C 208.613281 133.542969 209.171875 133.585938 209.730469 133.667969 C 210.289062 133.75 210.84375 133.867188 211.394531 134.019531 C 211.941406 134.175781 212.484375 134.367188 213.019531 134.59375 C 213.554688 134.820312 214.082031 135.082031 214.597656 135.375 C 215.113281 135.671875 215.617188 136.003906 216.109375 136.367188 C 216.601562 136.730469 217.078125 137.125 217.539062 137.550781 C 218 137.980469 218.445312 138.433594 218.875 138.921875 C 219.304688 139.40625 219.714844 139.921875 220.105469 140.460938 C 220.496094 141.003906 220.867188 141.570312 221.21875 142.160156 C 221.566406 142.75 221.894531 143.363281 222.199219 143.996094 C 222.503906 144.632812 222.785156 145.285156 223.042969 145.957031 C 223.300781 146.628906 223.53125 147.316406 223.738281 148.019531 C 223.945312 148.726562 224.125 149.441406 224.28125 150.167969 C 224.4375 150.894531 224.5625 151.632812 224.664062 152.378906 C 224.765625 153.125 224.839844 153.875 224.886719 154.628906 C 224.933594 155.386719 224.953125 156.144531 224.941406 156.902344 C 224.933594 157.660156 224.898438 158.417969 224.832031 159.171875 C 224.769531 159.925781 224.679688 160.675781 224.5625 161.417969 C 224.441406 162.160156 224.296875 162.894531 224.125 163.617188 C 223.953125 164.34375 223.757812 165.054688 223.535156 165.753906 C 223.3125 166.449219 223.0625 167.132812 222.789062 167.800781 C 222.519531 168.464844 222.222656 169.113281 221.902344 169.738281 C 221.582031 170.367188 221.242188 170.972656 220.878906 171.554688 C 220.515625 172.136719 220.132812 172.691406 219.730469 173.226562 C 219.324219 173.757812 218.902344 174.261719 218.464844 174.738281 C 218.023438 175.214844 217.566406 175.660156 217.09375 176.074219 C 216.625 176.492188 216.136719 176.875 215.636719 177.226562 C 215.136719 177.578125 214.625 177.898438 214.105469 178.183594 C 213.582031 178.46875 213.050781 178.714844 212.511719 178.929688 C 211.96875 179.144531 211.421875 179.320312 210.871094 179.464844 C 210.316406 179.605469 209.761719 179.710938 209.199219 179.777344 C 208.640625 179.847656 208.078125 179.875 207.519531 179.871094 C 206.957031 179.863281 206.394531 179.820312 205.835938 179.738281 C 205.277344 179.660156 204.726562 179.542969 204.175781 179.386719 C 203.625 179.230469 203.082031 179.042969 202.546875 178.816406 C 202.011719 178.589844 201.488281 178.328125 200.972656 178.03125 C 200.457031 177.734375 199.953125 177.40625 199.460938 177.042969 C 198.96875 176.679688 198.492188 176.285156 198.03125 175.855469 C 197.566406 175.429688 197.121094 174.972656 196.691406 174.488281 C 196.265625 174 195.855469 173.488281 195.464844 172.945312 C 195.070312 172.402344 194.703125 171.839844 194.351562 171.246094 C 194.003906 170.65625 193.675781 170.042969 193.371094 169.410156 C 193.066406 168.777344 192.785156 168.121094 192.527344 167.449219 C 192.269531 166.777344 192.039062 166.089844 191.832031 165.386719 C 191.625 164.683594 191.441406 163.96875 191.289062 163.238281 C 191.132812 162.511719 191.003906 161.773438 190.902344 161.03125 C 190.804688 160.285156 190.730469 159.535156 190.683594 158.777344 C 190.636719 158.023438 190.617188 157.265625 190.625 156.507812 C 190.636719 155.746094 190.671875 154.992188 190.734375 154.238281 C 190.800781 153.480469 190.890625 152.734375 191.007812 151.992188 C 191.125 151.246094 191.269531 150.515625 191.441406 149.789062 C 191.613281 149.066406 191.8125 148.355469 192.035156 147.65625 C 192.257812 146.957031 192.503906 146.273438 192.777344 145.609375 C 193.050781 144.941406 193.347656 144.296875 193.667969 143.667969 C 193.984375 143.042969 194.328125 142.4375 194.691406 141.855469 C 195.054688 141.273438 195.4375 140.714844 195.839844 140.183594 C 196.246094 139.652344 196.664062 139.148438 197.105469 138.671875 C 197.546875 138.195312 198 137.75 198.472656 137.332031 C 198.945312 136.914062 199.433594 136.53125 199.933594 136.179688 C 200.429688 135.828125 200.941406 135.511719 201.464844 135.226562 C 201.988281 134.941406 202.519531 134.691406 203.058594 134.476562 C 203.597656 134.265625 204.144531 134.085938 204.699219 133.945312 C 205.25 133.800781 205.808594 133.699219 206.367188 133.628906 C 206.929688 133.5625 207.488281 133.53125 208.050781 133.539062 Z M 208.050781 133.539062 " fill-opacity="1" fill-rule="nonzero"/><path fill="#2b2b2b" d="M 168.292969 147.695312 C 169.042969 147.703125 169.789062 147.808594 170.523438 148.011719 C 171.257812 148.214844 171.96875 148.511719 172.65625 148.898438 C 173.347656 149.289062 174 149.761719 174.621094 150.324219 C 175.238281 150.882812 175.808594 151.519531 176.332031 152.226562 C 176.855469 152.9375 177.320312 153.710938 177.726562 154.542969 C 178.136719 155.375 178.476562 156.25 178.753906 157.175781 C 179.03125 158.097656 179.238281 159.046875 179.371094 160.027344 C 179.507812 161.003906 179.570312 161.988281 179.558594 162.984375 C 179.546875 163.980469 179.460938 164.964844 179.304688 165.941406 C 179.148438 166.914062 178.917969 167.859375 178.621094 168.777344 C 178.324219 169.691406 177.960938 170.5625 177.535156 171.386719 C 177.105469 172.207031 176.625 172.96875 176.085938 173.664062 C 175.546875 174.363281 174.960938 174.984375 174.328125 175.53125 C 173.699219 176.078125 173.035156 176.535156 172.335938 176.910156 C 171.636719 177.28125 170.917969 177.5625 170.179688 177.746094 C 169.441406 177.933594 168.695312 178.019531 167.945312 178.011719 C 167.191406 178.003906 166.449219 177.898438 165.714844 177.695312 C 164.980469 177.492188 164.269531 177.195312 163.578125 176.808594 C 162.890625 176.417969 162.234375 175.945312 161.617188 175.382812 C 161 174.824219 160.429688 174.1875 159.90625 173.480469 C 159.382812 172.769531 158.917969 172 158.507812 171.164062 C 158.101562 170.332031 157.757812 169.457031 157.480469 168.53125 C 157.207031 167.609375 157 166.660156 156.863281 165.679688 C 156.730469 164.703125 156.667969 163.71875 156.679688 162.722656 C 156.691406 161.726562 156.773438 160.742188 156.933594 159.765625 C 157.089844 158.792969 157.316406 157.847656 157.617188 156.929688 C 157.914062 156.015625 158.277344 155.144531 158.703125 154.324219 C 159.128906 153.5 159.613281 152.738281 160.152344 152.042969 C 160.691406 151.34375 161.277344 150.722656 161.90625 150.175781 C 162.539062 149.628906 163.203125 149.171875 163.902344 148.796875 C 164.601562 148.425781 165.320312 148.144531 166.058594 147.960938 C 166.796875 147.773438 167.542969 147.6875 168.292969 147.695312 Z M 168.292969 147.695312 " fill-opacity="1" fill-rule="nonzero"/><path fill="#2b2b2b" d="M 204.558594 147.769531 C 205.3125 147.78125 206.054688 147.886719 206.789062 148.089844 C 207.523438 148.289062 208.234375 148.585938 208.925781 148.976562 C 209.613281 149.363281 210.269531 149.839844 210.886719 150.398438 C 211.503906 150.960938 212.074219 151.59375 212.597656 152.304688 C 213.121094 153.015625 213.585938 153.785156 213.992188 154.617188 C 214.402344 155.449219 214.746094 156.328125 215.019531 157.25 C 215.296875 158.171875 215.503906 159.125 215.640625 160.101562 C 215.773438 161.078125 215.835938 162.066406 215.824219 163.0625 C 215.8125 164.058594 215.730469 165.042969 215.570312 166.015625 C 215.414062 166.992188 215.183594 167.9375 214.886719 168.851562 C 214.589844 169.769531 214.226562 170.636719 213.800781 171.460938 C 213.375 172.285156 212.890625 173.042969 212.351562 173.742188 C 211.8125 174.4375 211.226562 175.0625 210.59375 175.605469 C 209.964844 176.152344 209.300781 176.613281 208.601562 176.984375 C 207.902344 177.359375 207.183594 177.636719 206.445312 177.824219 C 205.707031 178.007812 204.960938 178.097656 204.210938 178.089844 C 203.457031 178.078125 202.714844 177.972656 201.980469 177.769531 C 201.246094 177.570312 200.535156 177.273438 199.84375 176.882812 C 199.15625 176.496094 198.5 176.019531 197.882812 175.460938 C 197.265625 174.898438 196.695312 174.265625 196.171875 173.554688 C 195.648438 172.84375 195.183594 172.074219 194.777344 171.242188 C 194.367188 170.410156 194.023438 169.53125 193.75 168.609375 C 193.472656 167.6875 193.265625 166.734375 193.128906 165.757812 C 192.996094 164.78125 192.933594 163.792969 192.945312 162.796875 C 192.957031 161.800781 193.039062 160.816406 193.199219 159.84375 C 193.355469 158.867188 193.585938 157.921875 193.882812 157.007812 C 194.179688 156.089844 194.542969 155.222656 194.96875 154.398438 C 195.394531 153.574219 195.878906 152.816406 196.417969 152.117188 C 196.957031 151.421875 197.542969 150.796875 198.175781 150.253906 C 198.804688 149.707031 199.46875 149.246094 200.167969 148.875 C 200.867188 148.5 201.585938 148.222656 202.324219 148.035156 C 203.0625 147.851562 203.808594 147.761719 204.558594 147.769531 Z M 204.558594 147.769531 " fill-opacity="1" fill-rule="nonzero"/><path fill="#2b2b2b" d="M 187.804688 185.988281 C 184.679688 185.9375 181.796875 185.070312 179.164062 183.382812 C 178.996094 183.265625 178.894531 183.105469 178.859375 182.90625 C 178.824219 182.703125 178.867188 182.519531 178.984375 182.351562 C 179.105469 182.183594 179.265625 182.082031 179.464844 182.046875 C 179.667969 182.015625 179.851562 182.054688 180.019531 182.175781 C 180.363281 182.410156 188.4375 187.984375 196.179688 181.175781 C 196.335938 181.054688 196.511719 181.003906 196.707031 181.023438 C 196.902344 181.042969 197.066406 181.128906 197.195312 181.277344 C 197.324219 181.425781 197.382812 181.597656 197.375 181.796875 C 197.367188 181.992188 197.292969 182.160156 197.148438 182.296875 C 195.878906 183.472656 194.4375 184.382812 192.824219 185.019531 C 191.210938 185.65625 189.539062 185.980469 187.804688 185.988281 Z M 187.804688 185.988281 " fill-opacity="1" fill-rule="nonzero"/><path fill="#2b2b2b" d="M 213.855469 149.351562 C 214.609375 151.289062 216.367188 152.460938 217.777344 151.917969 C 219.183594 151.375 219.710938 149.34375 218.957031 147.382812 C 218.203125 145.421875 216.445312 144.273438 215.035156 144.816406 C 213.625 145.355469 213.09375 147.390625 213.855469 149.351562 Z M 213.855469 149.351562 " fill-opacity="1" fill-rule="nonzero"/><path fill="#2b2b2b" d="M 159.296875 149.621094 C 158.664062 151.628906 156.980469 152.882812 155.542969 152.425781 C 154.105469 151.972656 153.449219 149.980469 154.089844 147.976562 C 154.734375 145.972656 156.40625 144.71875 157.84375 145.171875 C 159.28125 145.628906 159.929688 147.617188 159.296875 149.621094 Z M 159.296875 149.621094 " fill-opacity="1" fill-rule="nonzero"/><path fill="#2b2b2b" d="M 216.496094 185.222656 C 215.570312 185.226562 214.644531 185.179688 213.722656 185.089844 C 212.796875 185 211.882812 184.863281 210.972656 184.683594 C 210.0625 184.503906 209.164062 184.277344 208.273438 184.007812 C 207.386719 183.738281 206.515625 183.429688 205.65625 183.074219 C 204.800781 182.71875 203.960938 182.324219 203.144531 181.886719 C 202.324219 181.449219 201.53125 180.972656 200.757812 180.457031 C 199.988281 179.945312 199.242188 179.390625 198.527344 178.804688 C 197.808594 178.214844 197.121094 177.59375 196.464844 176.9375 C 195.808594 176.28125 195.1875 175.597656 194.597656 174.878906 C 194.007812 174.164062 193.457031 173.417969 192.941406 172.648438 C 192.425781 171.875 191.949219 171.082031 191.511719 170.261719 C 191.074219 169.445312 190.679688 168.609375 190.324219 167.75 C 189.96875 166.894531 189.65625 166.023438 189.386719 165.132812 C 189.117188 164.246094 188.890625 163.347656 188.710938 162.4375 C 188.527344 161.527344 188.390625 160.613281 188.300781 159.6875 C 188.210938 158.765625 188.164062 157.839844 188.164062 156.914062 C 188.164062 155.984375 188.207031 155.058594 188.300781 154.136719 C 188.390625 153.214844 188.523438 152.296875 188.707031 151.386719 C 188.886719 150.476562 189.113281 149.578125 189.378906 148.691406 C 189.648438 147.804688 189.960938 146.929688 190.316406 146.074219 C 190.671875 145.214844 191.066406 144.378906 191.503906 143.5625 C 191.941406 142.742188 192.417969 141.949219 192.933594 141.175781 C 193.449219 140.40625 194 139.660156 194.589844 138.941406 C 195.175781 138.226562 195.796875 137.539062 196.453125 136.882812 C 197.109375 136.226562 197.796875 135.605469 198.515625 135.015625 C 199.230469 134.429688 199.976562 133.875 200.746094 133.359375 C 201.515625 132.84375 202.3125 132.367188 203.128906 131.929688 C 203.949219 131.492188 204.785156 131.097656 205.640625 130.742188 C 206.5 130.386719 207.371094 130.074219 208.257812 129.804688 C 209.148438 129.535156 210.046875 129.3125 210.957031 129.128906 C 211.867188 128.949219 212.78125 128.8125 213.703125 128.722656 C 214.628906 128.632812 215.554688 128.585938 216.480469 128.585938 C 217.410156 128.585938 218.335938 128.628906 219.257812 128.722656 C 220.179688 128.8125 221.097656 128.949219 222.007812 129.128906 C 222.917969 129.308594 223.816406 129.535156 224.703125 129.804688 C 225.589844 130.074219 226.464844 130.386719 227.320312 130.742188 C 228.175781 131.097656 229.015625 131.492188 229.832031 131.929688 C 230.652344 132.367188 231.445312 132.84375 232.21875 133.359375 C 232.988281 133.875 233.734375 134.425781 234.449219 135.015625 C 235.167969 135.601562 235.851562 136.226562 236.507812 136.882812 C 237.164062 137.539062 237.785156 138.222656 238.375 138.941406 C 238.964844 139.65625 239.515625 140.402344 240.03125 141.171875 C 240.546875 141.945312 241.023438 142.738281 241.460938 143.558594 C 241.898438 144.375 242.292969 145.214844 242.648438 146.070312 C 243.003906 146.925781 243.316406 147.800781 243.582031 148.6875 C 243.851562 149.574219 244.078125 150.472656 244.257812 151.382812 C 244.441406 152.292969 244.574219 153.210938 244.667969 154.132812 C 244.757812 155.058594 244.800781 155.980469 244.800781 156.910156 C 244.800781 157.835938 244.753906 158.761719 244.664062 159.683594 C 244.570312 160.605469 244.433594 161.519531 244.253906 162.429688 C 244.070312 163.339844 243.847656 164.238281 243.574219 165.125 C 243.304688 166.011719 242.992188 166.882812 242.640625 167.738281 C 242.285156 168.59375 241.886719 169.429688 241.449219 170.246094 C 241.011719 171.066406 240.539062 171.859375 240.023438 172.628906 C 239.507812 173.398438 238.957031 174.144531 238.367188 174.859375 C 237.78125 175.578125 237.15625 176.261719 236.503906 176.917969 C 235.847656 177.574219 235.160156 178.195312 234.445312 178.785156 C 233.730469 179.371094 232.984375 179.921875 232.214844 180.4375 C 231.445312 180.953125 230.652344 181.429688 229.835938 181.867188 C 229.015625 182.304688 228.179688 182.703125 227.324219 183.058594 C 226.46875 183.414062 225.597656 183.726562 224.710938 183.996094 C 223.824219 184.265625 222.925781 184.492188 222.019531 184.671875 C 221.109375 184.855469 220.191406 184.992188 219.269531 185.085938 C 218.347656 185.175781 217.425781 185.222656 216.496094 185.222656 Z M 216.496094 129.78125 C 215.609375 129.78125 214.722656 129.824219 213.839844 129.910156 C 212.957031 130 212.078125 130.128906 211.207031 130.300781 C 210.335938 130.476562 209.476562 130.691406 208.625 130.949219 C 207.777344 131.207031 206.941406 131.503906 206.121094 131.84375 C 205.300781 132.183594 204.5 132.5625 203.714844 132.984375 C 202.933594 133.402344 202.171875 133.859375 201.433594 134.351562 C 200.695312 134.84375 199.984375 135.371094 199.296875 135.9375 C 198.609375 136.5 197.953125 137.09375 197.324219 137.722656 C 196.695312 138.351562 196.101562 139.007812 195.539062 139.695312 C 194.976562 140.378906 194.445312 141.09375 193.953125 141.832031 C 193.460938 142.570312 193.003906 143.332031 192.585938 144.113281 C 192.167969 144.898438 191.789062 145.699219 191.449219 146.519531 C 191.109375 147.339844 190.808594 148.175781 190.550781 149.023438 C 190.292969 149.875 190.078125 150.734375 189.90625 151.605469 C 189.730469 152.476562 189.601562 153.355469 189.515625 154.238281 C 189.425781 155.121094 189.382812 156.007812 189.382812 156.894531 C 189.382812 157.785156 189.425781 158.667969 189.515625 159.554688 C 189.601562 160.4375 189.730469 161.3125 189.90625 162.183594 C 190.078125 163.054688 190.292969 163.917969 190.550781 164.765625 C 190.808594 165.617188 191.109375 166.449219 191.449219 167.269531 C 191.789062 168.089844 192.167969 168.894531 192.585938 169.675781 C 193.003906 170.460938 193.460938 171.21875 193.953125 171.957031 C 194.445312 172.699219 194.976562 173.410156 195.539062 174.097656 C 196.101562 174.78125 196.695312 175.441406 197.324219 176.066406 C 197.953125 176.695312 198.609375 177.292969 199.296875 177.855469 C 199.984375 178.417969 200.695312 178.945312 201.433594 179.441406 C 202.171875 179.933594 202.933594 180.390625 203.714844 180.808594 C 204.5 181.226562 205.300781 181.605469 206.121094 181.945312 C 206.941406 182.285156 207.777344 182.582031 208.625 182.839844 C 209.476562 183.097656 210.335938 183.316406 211.207031 183.488281 C 212.078125 183.660156 212.957031 183.792969 213.839844 183.878906 C 214.722656 183.964844 215.609375 184.007812 216.496094 184.007812 C 217.386719 184.007812 218.269531 183.964844 219.15625 183.878906 C 220.039062 183.792969 220.917969 183.660156 221.785156 183.488281 C 222.65625 183.316406 223.519531 183.097656 224.367188 182.839844 C 225.21875 182.582031 226.054688 182.285156 226.875 181.945312 C 227.695312 181.605469 228.496094 181.226562 229.277344 180.808594 C 230.0625 180.390625 230.824219 179.933594 231.5625 179.441406 C 232.300781 178.945312 233.011719 178.417969 233.699219 177.855469 C 234.382812 177.292969 235.042969 176.695312 235.667969 176.066406 C 236.296875 175.441406 236.894531 174.78125 237.457031 174.097656 C 238.019531 173.410156 238.546875 172.699219 239.042969 171.957031 C 239.535156 171.21875 239.992188 170.460938 240.410156 169.675781 C 240.828125 168.894531 241.207031 168.089844 241.546875 167.269531 C 241.886719 166.449219 242.1875 165.617188 242.445312 164.765625 C 242.703125 163.917969 242.917969 163.054688 243.089844 162.183594 C 243.261719 161.3125 243.394531 160.4375 243.480469 159.554688 C 243.566406 158.667969 243.609375 157.785156 243.609375 156.894531 C 243.609375 156.007812 243.566406 155.121094 243.476562 154.238281 C 243.386719 153.355469 243.257812 152.480469 243.082031 151.609375 C 242.910156 150.738281 242.691406 149.878906 242.433594 149.03125 C 242.175781 148.179688 241.875 147.347656 241.535156 146.527344 C 241.195312 145.707031 240.816406 144.90625 240.398438 144.121094 C 239.976562 143.339844 239.523438 142.578125 239.027344 141.84375 C 238.535156 141.105469 238.007812 140.390625 237.445312 139.707031 C 236.878906 139.019531 236.285156 138.363281 235.65625 137.734375 C 235.03125 137.109375 234.371094 136.511719 233.6875 135.949219 C 233 135.386719 232.289062 134.859375 231.550781 134.363281 C 230.8125 133.871094 230.050781 133.414062 229.269531 132.996094 C 228.488281 132.578125 227.6875 132.195312 226.867188 131.855469 C 226.046875 131.515625 225.210938 131.21875 224.363281 130.957031 C 223.515625 130.699219 222.65625 130.484375 221.785156 130.308594 C 220.914062 130.136719 220.035156 130.003906 219.152344 129.914062 C 218.269531 129.828125 217.386719 129.78125 216.496094 129.78125 Z M 216.496094 129.78125 " fill-opacity="1" fill-rule="nonzero"/><path fill="#2b2b2b" d="M 156.835938 186.199219 C 155.910156 186.199219 154.984375 186.152344 154.0625 186.0625 C 153.136719 185.96875 152.222656 185.835938 151.3125 185.652344 C 150.402344 185.472656 149.503906 185.246094 148.617188 184.976562 C 147.726562 184.707031 146.855469 184.398438 146 184.042969 C 145.140625 183.6875 144.304688 183.289062 143.488281 182.851562 C 142.667969 182.417969 141.875 181.941406 141.101562 181.425781 C 140.332031 180.910156 139.585938 180.355469 138.871094 179.769531 C 138.152344 179.179688 137.46875 178.558594 136.8125 177.902344 C 136.15625 177.246094 135.535156 176.558594 134.945312 175.84375 C 134.355469 175.125 133.804688 174.382812 133.289062 173.609375 C 132.773438 172.839844 132.296875 172.042969 131.859375 171.226562 C 131.421875 170.410156 131.027344 169.570312 130.671875 168.714844 C 130.316406 167.859375 130.003906 166.984375 129.738281 166.097656 C 129.46875 165.210938 129.242188 164.3125 129.0625 163.402344 C 128.878906 162.492188 128.746094 161.574219 128.652344 160.652344 C 128.5625 159.730469 128.515625 158.804688 128.515625 157.875 C 128.515625 156.949219 128.5625 156.023438 128.652344 155.101562 C 128.746094 154.175781 128.882812 153.261719 129.0625 152.351562 C 129.242188 151.441406 129.46875 150.542969 129.738281 149.65625 C 130.007812 148.769531 130.320312 147.894531 130.675781 147.039062 C 131.027344 146.183594 131.425781 145.34375 131.863281 144.527344 C 132.300781 143.707031 132.777344 142.914062 133.292969 142.144531 C 133.808594 141.371094 134.359375 140.628906 134.945312 139.910156 C 135.535156 139.195312 136.15625 138.507812 136.8125 137.851562 C 137.46875 137.195312 138.15625 136.574219 138.875 135.984375 C 139.589844 135.398438 140.335938 134.84375 141.105469 134.328125 C 141.878906 133.816406 142.671875 133.339844 143.488281 132.902344 C 144.308594 132.464844 145.144531 132.066406 146.003906 131.714844 C 146.859375 131.359375 147.730469 131.046875 148.617188 130.777344 C 149.507812 130.507812 150.40625 130.28125 151.316406 130.101562 C 152.226562 129.921875 153.140625 129.785156 154.0625 129.695312 C 154.988281 129.605469 155.914062 129.558594 156.839844 129.558594 C 157.769531 129.558594 158.691406 129.605469 159.617188 129.695312 C 160.539062 129.785156 161.457031 129.921875 162.367188 130.101562 C 163.273438 130.285156 164.171875 130.507812 165.0625 130.777344 C 165.949219 131.046875 166.820312 131.359375 167.679688 131.714844 C 168.535156 132.070312 169.371094 132.46875 170.191406 132.90625 C 171.007812 133.339844 171.800781 133.816406 172.574219 134.332031 C 173.34375 134.847656 174.089844 135.402344 174.804688 135.988281 C 175.523438 136.578125 176.210938 137.199219 176.863281 137.855469 C 177.519531 138.511719 178.144531 139.199219 178.730469 139.914062 C 179.320312 140.632812 179.871094 141.375 180.386719 142.148438 C 180.902344 142.917969 181.378906 143.714844 181.816406 144.53125 C 182.25 145.351562 182.648438 146.1875 183.003906 147.042969 C 183.355469 147.902344 183.667969 148.773438 183.9375 149.660156 C 184.207031 150.550781 184.433594 151.449219 184.613281 152.359375 C 184.792969 153.269531 184.929688 154.183594 185.019531 155.105469 C 185.113281 156.03125 185.15625 156.957031 185.15625 157.882812 C 185.15625 158.808594 185.109375 159.734375 185.015625 160.65625 C 184.925781 161.582031 184.789062 162.496094 184.605469 163.40625 C 184.425781 164.3125 184.199219 165.210938 183.929688 166.097656 C 183.660156 166.988281 183.347656 167.859375 182.992188 168.714844 C 182.636719 169.570312 182.238281 170.40625 181.800781 171.226562 C 181.363281 172.042969 180.886719 172.835938 180.375 173.605469 C 179.859375 174.378906 179.304688 175.121094 178.71875 175.839844 C 178.128906 176.554688 177.507812 177.242188 176.851562 177.894531 C 176.195312 178.550781 175.511719 179.171875 174.792969 179.761719 C 174.078125 180.351562 173.332031 180.902344 172.5625 181.417969 C 171.792969 181.933594 170.996094 182.410156 170.179688 182.847656 C 169.363281 183.285156 168.523438 183.679688 167.667969 184.035156 C 166.8125 184.390625 165.941406 184.703125 165.054688 184.972656 C 164.167969 185.242188 163.269531 185.46875 162.359375 185.648438 C 161.449219 185.832031 160.535156 185.96875 159.613281 186.058594 C 158.6875 186.152344 157.765625 186.195312 156.835938 186.199219 Z M 156.835938 130.75 C 155.949219 130.75 155.0625 130.792969 154.179688 130.878906 C 153.296875 130.96875 152.417969 131.097656 151.546875 131.269531 C 150.675781 131.445312 149.816406 131.660156 148.964844 131.917969 C 148.117188 132.175781 147.28125 132.472656 146.460938 132.8125 C 145.640625 133.152344 144.839844 133.53125 144.054688 133.953125 C 143.273438 134.371094 142.511719 134.824219 141.773438 135.320312 C 141.035156 135.8125 140.324219 136.339844 139.636719 136.90625 C 138.949219 137.46875 138.292969 138.0625 137.664062 138.691406 C 137.035156 139.320312 136.441406 139.976562 135.878906 140.664062 C 135.3125 141.347656 134.785156 142.0625 134.292969 142.800781 C 133.800781 143.539062 133.34375 144.300781 132.925781 145.082031 C 132.507812 145.867188 132.125 146.667969 131.785156 147.488281 C 131.445312 148.308594 131.148438 149.144531 130.890625 149.992188 C 130.632812 150.84375 130.417969 151.703125 130.242188 152.574219 C 130.070312 153.445312 129.941406 154.324219 129.855469 155.207031 C 129.765625 156.089844 129.722656 156.976562 129.722656 157.863281 C 129.722656 158.75 129.765625 159.636719 129.855469 160.519531 C 129.941406 161.40625 130.070312 162.28125 130.242188 163.152344 C 130.417969 164.023438 130.632812 164.882812 130.890625 165.734375 C 131.148438 166.585938 131.445312 167.417969 131.785156 168.238281 C 132.125 169.058594 132.507812 169.863281 132.925781 170.644531 C 133.34375 171.429688 133.800781 172.1875 134.292969 172.925781 C 134.785156 173.664062 135.3125 174.378906 135.878906 175.066406 C 136.441406 175.75 137.035156 176.40625 137.664062 177.035156 C 138.292969 177.664062 138.949219 178.257812 139.636719 178.824219 C 140.324219 179.386719 141.035156 179.914062 141.773438 180.40625 C 142.511719 180.902344 143.273438 181.355469 144.054688 181.777344 C 144.839844 182.195312 145.640625 182.574219 146.460938 182.914062 C 147.28125 183.253906 148.117188 183.550781 148.964844 183.808594 C 149.816406 184.066406 150.675781 184.285156 151.546875 184.457031 C 152.417969 184.628906 153.296875 184.761719 154.179688 184.847656 C 155.0625 184.933594 155.949219 184.976562 156.835938 184.976562 C 157.726562 184.976562 158.609375 184.933594 159.496094 184.847656 C 160.378906 184.761719 161.253906 184.628906 162.125 184.457031 C 162.996094 184.285156 163.859375 184.066406 164.707031 183.808594 C 165.558594 183.550781 166.394531 183.253906 167.214844 182.914062 C 168.035156 182.574219 168.835938 182.195312 169.617188 181.777344 C 170.402344 181.355469 171.164062 180.902344 171.902344 180.40625 C 172.640625 179.914062 173.351562 179.386719 174.039062 178.824219 C 174.722656 178.257812 175.382812 177.664062 176.007812 177.035156 C 176.636719 176.40625 177.234375 175.75 177.796875 175.066406 C 178.359375 174.378906 178.886719 173.664062 179.382812 172.925781 C 179.875 172.1875 180.332031 171.429688 180.75 170.644531 C 181.167969 169.863281 181.546875 169.058594 181.886719 168.238281 C 182.226562 167.417969 182.527344 166.585938 182.785156 165.734375 C 183.042969 164.882812 183.257812 164.023438 183.429688 163.152344 C 183.601562 162.28125 183.734375 161.40625 183.820312 160.519531 C 183.90625 159.636719 183.949219 158.75 183.949219 157.863281 C 183.949219 156.976562 183.90625 156.089844 183.816406 155.207031 C 183.726562 154.324219 183.597656 153.449219 183.421875 152.578125 C 183.246094 151.707031 183.03125 150.847656 182.773438 150 C 182.515625 149.148438 182.214844 148.316406 181.875 147.496094 C 181.535156 146.675781 181.152344 145.875 180.734375 145.089844 C 180.316406 144.308594 179.859375 143.550781 179.367188 142.8125 C 178.875 142.074219 178.34375 141.363281 177.78125 140.675781 C 177.21875 139.988281 176.621094 139.332031 175.996094 138.707031 C 175.367188 138.078125 174.710938 137.480469 174.023438 136.917969 C 173.339844 136.355469 172.628906 135.828125 171.890625 135.335938 C 171.152344 134.839844 170.390625 134.382812 169.609375 133.964844 C 168.828125 133.546875 168.023438 133.167969 167.207031 132.828125 C 166.386719 132.484375 165.550781 132.1875 164.703125 131.929688 C 163.851562 131.667969 162.992188 131.453125 162.125 131.277344 C 161.253906 131.105469 160.375 130.972656 159.492188 130.882812 C 158.609375 130.796875 157.726562 130.75 156.835938 130.75 Z M 156.835938 130.75 " fill-opacity="1" fill-rule="nonzero"/><path fill="#f0f0f0" d="M 121.121094 183.476562 L 124.726562 177.734375 C 124.875 177.496094 125.058594 177.289062 125.277344 177.109375 C 125.492188 176.933594 125.730469 176.792969 125.992188 176.691406 C 126.253906 176.589844 126.527344 176.535156 126.804688 176.519531 C 127.085938 176.507812 127.363281 176.539062 127.632812 176.617188 C 130.683594 177.488281 137.601562 178.980469 148.84375 178.851562 C 162.9375 178.691406 179.011719 190.140625 184.425781 197.25 C 184.625 197.511719 184.867188 197.714844 185.15625 197.867188 C 185.445312 198.019531 185.753906 198.105469 186.078125 198.121094 C 186.402344 198.140625 186.71875 198.089844 187.019531 197.96875 C 187.324219 197.847656 187.589844 197.671875 187.816406 197.433594 C 192.042969 192.992188 202.683594 182.957031 215.117188 180.085938 C 229.976562 176.660156 238.519531 179.699219 246.976562 177.707031 C 247.28125 177.632812 247.589844 177.617188 247.902344 177.65625 C 248.214844 177.699219 248.507812 177.792969 248.789062 177.941406 C 249.066406 178.089844 249.308594 178.28125 249.515625 178.515625 C 249.722656 178.753906 249.882812 179.019531 249.992188 179.3125 L 252.160156 185.050781 L 226.472656 212.527344 C 226.472656 212.527344 189.246094 220.324219 186.410156 220.5 C 183.574219 220.679688 158.230469 219.617188 155.214844 216.597656 C 152.199219 213.582031 121.121094 183.476562 121.121094 183.476562 Z M 121.121094 183.476562 " fill-opacity="1" fill-rule="nonzero"/><g clip-path="url(#156f187f06)"><path fill="#2b2b2b" d="M 115.652344 181.539062 L 178.226562 203.859375 C 178.664062 204.015625 179.015625 204.28125 179.28125 204.660156 C 179.546875 205.035156 179.679688 205.457031 179.679688 205.917969 L 179.679688 206.085938 C 179.679688 206.378906 179.734375 206.65625 179.847656 206.925781 C 179.957031 207.191406 180.117188 207.429688 180.320312 207.636719 C 180.527344 207.839844 180.761719 208 181.03125 208.109375 C 181.300781 208.21875 181.578125 208.277344 181.867188 208.277344 L 190.101562 208.277344 C 190.390625 208.277344 190.667969 208.21875 190.9375 208.109375 C 191.203125 208 191.441406 207.839844 191.644531 207.636719 C 191.851562 207.429688 192.007812 207.191406 192.117188 206.925781 C 192.230469 206.65625 192.285156 206.378906 192.285156 206.085938 L 192.285156 205.792969 C 192.285156 205.316406 192.425781 204.886719 192.703125 204.503906 C 192.984375 204.121094 193.351562 203.855469 193.804688 203.710938 L 257.292969 183.308594 C 257.519531 183.234375 257.753906 183.1875 257.992188 183.171875 C 258.230469 183.152344 258.464844 183.160156 258.703125 183.199219 C 258.9375 183.238281 259.164062 183.300781 259.386719 183.390625 C 259.605469 183.484375 259.8125 183.597656 260.007812 183.738281 C 260.199219 183.878906 260.375 184.039062 260.53125 184.21875 C 260.6875 184.398438 260.820312 184.597656 260.929688 184.808594 C 261.039062 185.019531 261.121094 185.242188 261.179688 185.472656 C 261.238281 185.703125 261.265625 185.941406 261.269531 186.179688 L 261.921875 265.867188 C 261.925781 266.21875 261.871094 266.558594 261.757812 266.890625 C 261.644531 267.222656 261.476562 267.523438 261.257812 267.796875 C 261.039062 268.070312 260.78125 268.296875 260.484375 268.484375 C 260.1875 268.667969 259.867188 268.796875 259.527344 268.871094 C 250.449219 270.808594 217.863281 278.414062 197.109375 290.367188 C 196.660156 290.628906 196.304688 290.984375 196.042969 291.4375 C 195.785156 291.890625 195.65625 292.378906 195.660156 292.902344 L 195.660156 293.171875 C 195.660156 293.523438 195.589844 293.863281 195.457031 294.191406 C 195.320312 294.515625 195.128906 294.804688 194.878906 295.054688 C 194.628906 295.304688 194.339844 295.496094 194.015625 295.632812 C 193.6875 295.765625 193.347656 295.835938 192.996094 295.835938 L 180.460938 295.835938 C 180.117188 295.835938 179.785156 295.769531 179.464844 295.644531 C 179.148438 295.515625 178.863281 295.332031 178.617188 295.09375 C 178.367188 294.855469 178.171875 294.582031 178.03125 294.269531 C 177.890625 293.953125 177.8125 293.625 177.796875 293.28125 C 177.777344 292.753906 177.625 292.265625 177.339844 291.820312 C 177.050781 291.375 176.671875 291.03125 176.199219 290.792969 C 168.9375 287.113281 137.375 271.636719 113.785156 268.808594 C 113.414062 268.765625 113.0625 268.65625 112.734375 268.484375 C 112.402344 268.3125 112.113281 268.085938 111.867188 267.808594 C 111.621094 267.53125 111.429688 267.214844 111.296875 266.867188 C 111.167969 266.519531 111.101562 266.160156 111.101562 265.785156 L 111.585938 184.398438 C 111.585938 184.152344 111.613281 183.914062 111.671875 183.675781 C 111.730469 183.4375 111.816406 183.210938 111.925781 182.996094 C 112.039062 182.78125 112.175781 182.578125 112.335938 182.394531 C 112.496094 182.210938 112.675781 182.050781 112.875 181.910156 C 113.078125 181.769531 113.289062 181.65625 113.515625 181.566406 C 113.742188 181.480469 113.976562 181.417969 114.21875 181.386719 C 114.460938 181.355469 114.703125 181.351562 114.945312 181.375 C 115.1875 181.402344 115.421875 181.457031 115.652344 181.539062 Z M 115.652344 181.539062 " fill-opacity="1" fill-rule="nonzero"/></g><path fill="#f0f0f0" d="M 256.507812 204.878906 C 256.308594 204.878906 256.132812 204.804688 255.988281 204.664062 C 255.84375 204.519531 255.773438 204.347656 255.769531 204.144531 L 255.59375 190.851562 L 241.679688 195.425781 C 241.484375 195.488281 241.296875 195.476562 241.113281 195.382812 C 240.929688 195.289062 240.808594 195.148438 240.742188 194.953125 C 240.679688 194.757812 240.695312 194.570312 240.789062 194.386719 C 240.878906 194.203125 241.023438 194.082031 241.21875 194.015625 L 255.53125 189.285156 C 255.710938 189.226562 255.890625 189.214844 256.074219 189.242188 C 256.261719 189.269531 256.429688 189.335938 256.582031 189.445312 C 256.734375 189.554688 256.855469 189.691406 256.941406 189.855469 C 257.027344 190.023438 257.074219 190.199219 257.078125 190.386719 L 257.253906 204.105469 C 257.257812 204.3125 257.1875 204.488281 257.046875 204.632812 C 256.902344 204.78125 256.730469 204.855469 256.523438 204.859375 Z M 256.507812 204.878906 " fill-opacity="1" fill-rule="nonzero"/><path fill="#f0f0f0" d="M 257.105469 240.964844 C 256.902344 240.964844 256.730469 240.890625 256.585938 240.75 C 256.441406 240.605469 256.367188 240.433594 256.363281 240.230469 L 255.769531 208.761719 C 255.746094 208.542969 255.808594 208.355469 255.953125 208.191406 C 256.097656 208.03125 256.277344 207.945312 256.496094 207.941406 C 256.714844 207.9375 256.898438 208.015625 257.046875 208.171875 C 257.199219 208.328125 257.269531 208.515625 257.253906 208.730469 L 257.847656 240.203125 C 257.851562 240.40625 257.78125 240.582031 257.640625 240.730469 C 257.496094 240.878906 257.324219 240.953125 257.121094 240.957031 Z M 257.105469 240.964844 " fill-opacity="1" fill-rule="nonzero"/><path fill="#f0f0f0" d="M 256.214844 243.515625 C 256.226562 243.246094 256.335938 243.023438 256.53125 242.84375 C 256.730469 242.664062 256.964844 242.582031 257.230469 242.597656 C 257.5 242.609375 257.722656 242.71875 257.902344 242.917969 C 258.082031 243.117188 258.164062 243.347656 258.148438 243.617188 C 258.132812 243.882812 258.027344 244.105469 257.828125 244.285156 C 257.628906 244.464844 257.398438 244.546875 257.128906 244.53125 C 256.863281 244.515625 256.640625 244.410156 256.460938 244.210938 C 256.28125 244.015625 256.199219 243.78125 256.214844 243.515625 Z M 256.214844 243.515625 " fill-opacity="1" fill-rule="nonzero"/><path fill="#f0f0f0" d="M 256.214844 246.777344 C 256.226562 246.511719 256.332031 246.285156 256.53125 246.105469 C 256.730469 245.925781 256.960938 245.84375 257.230469 245.855469 C 257.496094 245.867188 257.71875 245.976562 257.898438 246.171875 C 258.078125 246.371094 258.164062 246.605469 258.148438 246.871094 C 258.136719 247.140625 258.027344 247.363281 257.828125 247.542969 C 257.628906 247.722656 257.398438 247.804688 257.128906 247.789062 C 256.863281 247.777344 256.640625 247.667969 256.464844 247.472656 C 256.285156 247.273438 256.203125 247.042969 256.214844 246.777344 Z M 256.214844 246.777344 " fill-opacity="1" fill-rule="nonzero"/><g fill="#ffffff" fill-opacity="1"><g transform="translate(65.635969, 286.603774)"><g><path d="M 69.28125 -55.792969 C 72.363281 -55.792969 74.828125 -58.257812 74.828125 -61.34375 C 74.828125 -64.425781 72.285156 -66.8125 69.28125 -66.8125 C 66.195312 -66.8125 63.808594 -64.425781 63.808594 -61.34375 C 63.808594 -58.257812 66.195312 -55.792969 69.28125 -55.792969 Z M 63.652344 -43.773438 C 66.734375 -43.773438 69.203125 -46.238281 69.203125 -49.320312 C 69.203125 -52.402344 66.660156 -54.792969 63.652344 -54.792969 C 60.570312 -54.792969 58.183594 -52.402344 58.183594 -49.320312 C 58.183594 -46.238281 60.570312 -43.773438 63.652344 -43.773438 Z M 74.671875 -43.773438 C 77.757812 -43.773438 80.222656 -46.238281 80.222656 -49.320312 C 80.222656 -52.402344 77.679688 -54.792969 74.671875 -54.792969 C 71.589844 -54.792969 69.203125 -52.402344 69.203125 -49.320312 C 69.203125 -46.238281 71.589844 -43.773438 74.671875 -43.773438 Z M 84.847656 -9.402344 L 84.847656 -37.914062 C 79.296875 -36.914062 75.367188 -39.378906 69.28125 -39.378906 C 58.722656 -39.378906 49.472656 -31.828125 49.472656 -19.265625 C 49.472656 -15.488281 50.320312 -12.175781 51.785156 -9.402344 L 19.652344 -9.402344 C 18.804688 -6.703125 15.875 -4.316406 13.175781 -4.316406 C 10.710938 -4.316406 9.554688 -5.703125 9.554688 -7.320312 C 9.554688 -9.402344 11.40625 -10.019531 12.792969 -9.554688 C 13.792969 -10.171875 14.488281 -11.558594 14.488281 -13.175781 C 14.488281 -16.105469 12.253906 -18.109375 9.632812 -18.109375 C 1.617188 -18.109375 0.386719 0 16.261719 0 L 89.46875 0 L 89.46875 -9.402344 Z M 70.667969 -9.402344 C 64.808594 -9.402344 60.496094 -13.484375 60.496094 -19.652344 C 60.496094 -25.816406 64.808594 -29.515625 70.050781 -29.515625 C 71.589844 -29.515625 72.976562 -29.207031 74.441406 -28.820312 L 74.441406 -9.402344 Z M 70.667969 -9.402344 "/></g></g></g><g fill="#ffffff" fill-opacity="1"><g transform="translate(154.323384, 286.603774)"><g><path d="M 17.339844 0 L 17.339844 -38.53125 L 6.9375 -38.53125 L 6.9375 -9.402344 L -0.769531 -9.402344 L -0.769531 0 Z M 6.628906 5.316406 C 3.542969 5.316406 1.15625 7.785156 1.15625 10.867188 C 1.15625 13.949219 3.542969 16.335938 6.628906 16.335938 C 9.632812 16.335938 12.175781 13.949219 12.175781 10.867188 C 12.175781 7.785156 9.710938 5.316406 6.628906 5.316406 Z M 17.648438 5.316406 C 14.566406 5.316406 12.175781 7.785156 12.175781 10.867188 C 12.175781 13.949219 14.566406 16.335938 17.648438 16.335938 C 20.652344 16.335938 23.195312 13.949219 23.195312 10.867188 C 23.195312 7.785156 20.730469 5.316406 17.648438 5.316406 Z M 17.648438 5.316406 "/></g></g></g><g fill="#ffffff" fill-opacity="1"><g transform="translate(175.512817, 286.603774)"><g><path d="M 3.851562 0 L 44.542969 0 L 44.542969 -14.027344 C 44.542969 -19.265625 44.542969 -21.886719 43.078125 -29.285156 C 43 -30.054688 42.460938 -30.59375 41.769531 -30.671875 L 9.246094 -35.21875 L 9.015625 -34.292969 L 9.941406 -25.429688 L 10.480469 -24.582031 L 34.140625 -22.347656 L 34.140625 -9.480469 L 3.851562 -9.480469 Z M 3.851562 0 "/></g></g></g><g fill="#ffffff" fill-opacity="1"><g transform="translate(223.901784, 286.603774)"><g/></g></g><g fill="#ffffff" fill-opacity="1"><g transform="translate(235.459658, 286.603774)"><g><path d="M 48.859375 -9.402344 L 48.859375 -53.945312 L 38.453125 -53.945312 L 38.453125 -9.402344 L 16.261719 -9.402344 C 0.386719 -9.402344 1.617188 8.707031 9.632812 8.707031 C 12.253906 8.707031 14.488281 6.703125 14.488281 3.777344 C 14.488281 2.15625 13.792969 0.769531 12.792969 0.152344 C 11.40625 0.617188 9.554688 0 9.554688 -2.082031 C 9.554688 -3.699219 10.710938 -5.085938 13.175781 -5.085938 C 15.875 -5.085938 16.570312 0 23.582031 0 L 53.480469 0 L 53.480469 -9.402344 Z M 24.042969 -14.179688 C 33.445312 -14.179688 33.445312 -24.507812 29.128906 -24.507812 C 27.511719 -24.507812 26.742188 -23.8125 26.125 -22.808594 C 27.433594 -18.804688 20.882812 -18.03125 20.882812 -23.195312 C 20.882812 -25.660156 22.886719 -28.050781 26.125 -28.050781 L 26.972656 -29.050781 L 26.972656 -53.945312 L 16.570312 -53.945312 L 16.570312 -20.882812 C 16.570312 -17.339844 20.265625 -14.179688 24.042969 -14.179688 Z M 24.042969 -14.179688 "/></g></g></g><g fill="#ffffff" fill-opacity="1"><g transform="translate(288.163562, 286.603774)"><g><path d="M 17.339844 0 L 17.339844 -38.53125 L 6.9375 -38.53125 L 6.9375 -9.402344 L -0.769531 -9.402344 L -0.769531 0 Z M 6.628906 5.316406 C 3.542969 5.316406 1.15625 7.785156 1.15625 10.867188 C 1.15625 13.949219 3.542969 16.335938 6.628906 16.335938 C 9.632812 16.335938 12.175781 13.949219 12.175781 10.867188 C 12.175781 7.785156 9.710938 5.316406 6.628906 5.316406 Z M 17.648438 5.316406 C 14.566406 5.316406 12.175781 7.785156 12.175781 10.867188 C 12.175781 13.949219 14.566406 16.335938 17.648438 16.335938 C 20.652344 16.335938 23.195312 13.949219 23.195312 10.867188 C 23.195312 7.785156 20.730469 5.316406 17.648438 5.316406 Z M 17.648438 5.316406 "/></g></g></g><g fill="#ffffff" fill-opacity="1"><g transform="translate(65.625, 305.978415)"><g><path d="M 13.09375 0.492188 L 13.09375 -0.605469 C 11.914062 0.785156 9.851562 1.703125 7.6875 1.703125 C 4.128906 1.703125 1.476562 -0.785156 1.476562 -4.292969 C 1.476562 -7.734375 4.046875 -10.226562 7.441406 -10.226562 C 10.390625 -10.226562 12.667969 -8.308594 12.667969 -5.390625 C 12.667969 -3.441406 11.667969 -2.457031 11.015625 -2.457031 C 10.703125 -2.457031 10.472656 -2.671875 10.472656 -3.113281 L 10.472656 -7.570312 L 8.703125 -7.570312 L 8.703125 -6.867188 C 8.277344 -7.34375 7.621094 -7.71875 6.703125 -7.71875 C 4.835938 -7.71875 3.375 -6.164062 3.375 -4.292969 C 3.375 -2.425781 4.835938 -0.867188 6.71875 -0.867188 C 7.621094 -0.867188 8.457031 -1.210938 8.949219 -1.769531 C 9.226562 -1.261719 9.753906 -1.015625 10.324219 -1.015625 C 11.71875 -1.015625 13.488281 -2.476562 13.488281 -5.308594 C 13.488281 -8.769531 10.851562 -11.046875 7.425781 -11.046875 C 3.605469 -11.046875 0.621094 -8.210938 0.621094 -4.292969 C 0.621094 -0.3125 3.703125 2.523438 7.671875 2.523438 C 9.816406 2.523438 11.800781 1.6875 13.09375 0.492188 Z M 8.703125 -4.292969 C 8.703125 -3.34375 7.933594 -2.558594 6.980469 -2.558594 C 6.03125 -2.558594 5.246094 -3.34375 5.246094 -4.292969 C 5.246094 -5.246094 6.03125 -6.03125 6.980469 -6.03125 C 7.933594 -6.03125 8.703125 -5.246094 8.703125 -4.292969 Z M 8.703125 -4.292969 "/></g></g></g><g fill="#ffffff" fill-opacity="1"><g transform="translate(79.802416, 305.978415)"><g><path d="M -0.0664062 -8.195312 L 4.210938 0 C 3.507812 1.425781 2.964844 1.851562 2.507812 1.851562 C 1.949219 1.851562 1.804688 1.246094 2.148438 0.949219 C 2.015625 0.769531 1.753906 0.65625 1.441406 0.65625 C 0.753906 0.65625 0.261719 1.195312 0.261719 1.851562 C 0.261719 2.410156 0.621094 3.246094 1.835938 3.246094 C 3.492188 3.246094 3.964844 1.703125 4.769531 0.179688 L 9.144531 -8.195312 L 6.6875 -8.195312 L 4.539062 -4.046875 L 2.394531 -8.195312 Z M -0.0664062 -8.195312 "/></g></g></g><g fill="#ffffff" fill-opacity="1"><g transform="translate(88.784181, 305.978415)"><g><path d="M 1.082031 -8.195312 L 1.082031 -6.195312 L 5.902344 -6.195312 L 5.902344 -4.457031 C 5.390625 -4.636719 4.589844 -4.820312 3.703125 -4.820312 C 3.097656 -4.820312 2.292969 -4.738281 1.621094 -4.359375 C 0.851562 -3.917969 0.457031 -3.164062 0.457031 -2.328125 C 0.457031 -0.933594 1.574219 0.179688 3.457031 0.179688 C 4.539062 0.179688 5.328125 -0.179688 5.902344 -0.785156 L 5.902344 0 L 8.113281 0 L 8.113281 -8.195312 Z M 4.195312 -3.261719 C 4.984375 -3.261719 5.636719 -3.066406 5.902344 -2.984375 L 5.902344 -2.964844 C 5.554688 -2.210938 4.785156 -1.738281 3.933594 -1.738281 C 3.394531 -1.738281 2.769531 -1.917969 2.769531 -2.476562 C 2.769531 -3.046875 3.394531 -3.261719 4.195312 -3.261719 Z M 4.195312 -3.261719 "/></g></g></g><g fill="#ffffff" fill-opacity="1"><g transform="translate(97.765946, 305.978415)"><g><path d="M 0.867188 0 L 3.082031 0 L 3.082031 -11.472656 L 0.867188 -11.472656 Z M 0.867188 0 "/></g></g></g><g fill="#ffffff" fill-opacity="1"><g transform="translate(101.71595, 305.978415)"><g><path d="M 0.867188 0 L 3.082031 0 L 3.082031 -11.472656 L 0.867188 -11.472656 Z M 0.867188 0 "/></g></g></g><g fill="#ffffff" fill-opacity="1"><g transform="translate(105.665953, 305.978415)"><g><path d="M 1.082031 -8.195312 L 1.082031 -6.195312 L 5.902344 -6.195312 L 5.902344 -4.457031 C 5.390625 -4.636719 4.589844 -4.820312 3.703125 -4.820312 C 3.097656 -4.820312 2.292969 -4.738281 1.621094 -4.359375 C 0.851562 -3.917969 0.457031 -3.164062 0.457031 -2.328125 C 0.457031 -0.933594 1.574219 0.179688 3.457031 0.179688 C 4.539062 0.179688 5.328125 -0.179688 5.902344 -0.785156 L 5.902344 0 L 8.113281 0 L 8.113281 -8.195312 Z M 4.195312 -3.261719 C 4.984375 -3.261719 5.636719 -3.066406 5.902344 -2.984375 L 5.902344 -2.964844 C 5.554688 -2.210938 4.785156 -1.738281 3.933594 -1.738281 C 3.394531 -1.738281 2.769531 -1.917969 2.769531 -2.476562 C 2.769531 -3.046875 3.394531 -3.261719 4.195312 -3.261719 Z M 4.195312 -3.261719 "/></g></g></g><g fill="#ffffff" fill-opacity="1"><g transform="translate(114.647718, 305.978415)"><g><path d="M 7.082031 0 L 9.292969 0 L 9.292969 -11.472656 L 7.082031 -11.472656 L 7.082031 -7.308594 C 6.554688 -7.917969 5.738281 -8.375 4.605469 -8.375 C 2.246094 -8.375 0.425781 -6.441406 0.425781 -4.097656 C 0.425781 -1.753906 2.246094 0.179688 4.605469 0.179688 C 5.738281 0.179688 6.554688 -0.277344 7.082031 -0.886719 Z M 7.082031 -4.097656 C 7.082031 -2.917969 6.113281 -1.933594 4.917969 -1.933594 C 3.738281 -1.933594 2.769531 -2.917969 2.769531 -4.097656 C 2.769531 -5.292969 3.738281 -6.261719 4.917969 -6.261719 C 6.113281 -6.261719 7.082031 -5.292969 7.082031 -4.097656 Z M 7.082031 -4.097656 "/></g></g></g><g fill="#ffffff" fill-opacity="1"><g transform="translate(124.809559, 305.978415)"><g><path d="M 4.917969 -3.621094 C 5.375 -3.621094 6.410156 -3.65625 7.082031 -4.015625 C 7.703125 -4.34375 8.144531 -5.03125 8.144531 -5.867188 C 8.144531 -7.210938 6.980469 -8.375 4.867188 -8.375 C 2.195312 -8.375 0.441406 -6.539062 0.441406 -4.03125 C 0.441406 -1.671875 2.046875 0.179688 4.984375 0.179688 C 6.308594 0.179688 7.410156 -0.230469 8.113281 -0.769531 L 8.113281 -3.179688 C 7.523438 -2.574219 6.574219 -1.902344 5.210938 -1.902344 C 3.71875 -1.902344 2.800781 -2.621094 2.753906 -3.882812 C 3.230469 -3.738281 4.082031 -3.621094 4.917969 -3.621094 Z M 4.390625 -5.179688 C 3.71875 -5.179688 3.246094 -5.246094 2.964844 -5.308594 C 3.277344 -6.097656 3.933594 -6.457031 4.769531 -6.457031 C 5.328125 -6.457031 5.835938 -6.292969 5.835938 -5.800781 C 5.835938 -5.292969 5.292969 -5.179688 4.390625 -5.179688 Z M 4.390625 -5.179688 "/></g></g></g><g fill="#ffffff" fill-opacity="1"><g transform="translate(133.578246, 305.978415)"><g><path d="M 4.210938 0.179688 L 4.671875 0.179688 L 9.046875 -8.195312 L 6.589844 -8.195312 L 4.441406 -4.046875 L 2.292969 -8.195312 L -0.164062 -8.195312 Z M 4.210938 0.179688 "/></g></g></g></svg>